<?xml version="1.0" standalone="no"?>
<!DOCTYPE svg PUBLIC "-//W3C//DTD SVG 1.1//EN" "http://www.w3.org/Graphics/SVG/1.1/DTD/svg11.dtd" >
<svg xmlns="http://www.w3.org/2000/svg">
<metadata>Generated by IcoMoon</metadata>
<defs>
<font id="icomoon" horiz-adv-x="1024">
<font-face units-per-em="1024" ascent="960" descent="-64" />
<missing-glyph horiz-adv-x="1024" />
<glyph unicode="&#x20;" horiz-adv-x="512" d="" />
<glyph unicode="&#xc101;" glyph-name="circle" d="M512 960c-282.77 0-512-229.23-512-512s229.23-512 512-512c282.77 0 512 229.23 512 512v0c-0.32 282.641-229.359 511.68-511.969 512h-0.031zM512 857.856c226.357 0 409.856-183.499 409.856-409.856s-183.499-409.856-409.856-409.856c-226.357 0-409.856 183.499-409.856 409.856 0 0.090 0 0.18 0 0.27v-0.014c0 0.076 0 0.166 0 0.256 0 226.074 183.27 409.344 409.344 409.344 0.18 0 0.36 0 0.54 0h-0.028z" />
<glyph unicode="&#xc102;" glyph-name="center-aligement" d="M1024 806.4h-1024v-102.4h1024v102.4zM870.4 601.6h-716.8v-102.4h716.8v102.4zM1024 396.8h-1024v-102.4h1024v102.4zM870.4 192h-716.8v-102.4h716.8v102.4z" />
<glyph unicode="&#xc103;" glyph-name="calendars" d="M102.4-64h819.2c2.934-0.328 6.337-0.515 9.782-0.515 51.436 0 93.133 41.697 93.133 93.133 0 3.446-0.187 6.848-0.552 10.197l0.037-0.414v706.56c0.412 3.431 0.648 7.405 0.648 11.434 0 55.904-45.319 101.222-101.222 101.222-0.642 0-1.282-0.006-1.921-0.018l0.096 0.001v-51.2c-11.088-51.472-50.928-91.312-101.528-102.242l-0.872-0.158c-51.472 11.088-91.312 50.928-102.242 101.528l-0.158 0.872v51.2h-409.6v-51.2c-11.088-51.472-50.928-91.312-101.528-102.242l-0.872-0.158c-51.472 11.088-91.312 50.928-102.242 101.528l-0.158 0.872v51.2c-0.56 0.011-1.221 0.018-1.883 0.018-55.875 0-101.171-45.296-101.171-101.171 0-4.047 0.238-8.039 0.7-11.962l-0.046 0.476v-706.56c-0.324-2.917-0.509-6.299-0.509-9.725 0-51.464 41.72-93.184 93.184-93.184 3.425 0 6.808 0.185 10.137 0.545l-0.413-0.036zM102.4 601.6h819.2v-512c-0.398-28.116-23.084-50.802-51.162-51.2h-716.838c-28.116 0.398-50.802 23.084-51.2 51.162v512.038zM204.8 550.4h102.4v-102.4h-102.4v102.4zM358.4 550.4h102.4v-102.4h-102.4v102.4zM563.2 550.4h102.4v-102.4h-102.4v102.4zM716.8 550.4h102.4v-102.4h-102.4v102.4zM204.8 396.8h102.4v-102.4h-102.4v102.4zM358.4 396.8h102.4v-102.4h-102.4v102.4zM563.2 396.8h102.4v-102.4h-102.4v102.4zM716.8 396.8h102.4v-102.4h-102.4v102.4zM204.8 243.2h102.4v-102.4h-102.4v102.4zM358.4 243.2h102.4v-102.4h-102.4v102.4zM563.2 243.2h102.4v-102.4h-102.4v102.4zM716.8 243.2h102.4v-102.4h-102.4v102.4zM203.11 764.416c0.168-0.002 0.367-0.004 0.566-0.004 23.065 0 41.796 18.554 42.083 41.551v112.667c-0.401 22.935-19.087 41.373-42.080 41.373-0.2 0-0.4-0.001-0.599-0.004h-8.52c-0.107 0.001-0.234 0.002-0.361 0.002-23.064 0-41.795-18.553-42.083-41.549v-112.667c0.402-22.934 19.088-41.371 42.080-41.371 0.128 0 0.256 0.001 0.384 0.002h8.53zM829.645 764.416c22.539 0.109 40.768 18.405 40.768 40.96 0 0.36-0.005 0.719-0.014 1.077l0.001-0.053v102.4c1.034 3.383 1.629 7.271 1.629 11.298 0 22.084-17.903 39.987-39.987 39.987-0.915 0-1.824-0.031-2.724-0.091l0.122 0.007h-8.602c-63.386 0-52.838-28.262-52.838-51.2v-102.4c5.154-24.149 26.308-41.998 51.631-41.998 0.424 0 0.848 0.005 1.27 0.015l-0.063-0.001h8.602z" />
<glyph unicode="&#xc104;" glyph-name="calendar" d="M921.6 908.8h-102.4v51.2h-102.4v-51.2h-409.6v51.2h-102.4v-51.2s-100.557 1.331-102.4 0c-4.795 0.928-10.31 1.459-15.948 1.459-48.552 0-87.91-39.359-87.91-87.91 0-5.639 0.531-11.153 1.545-16.497l-0.087 0.548v-716.8c0-71.68 56.32-153.6 128-153.6h768c0.367-0.004 0.801-0.006 1.235-0.006 70.014 0 126.771 56.757 126.771 126.771 0 0.434-0.002 0.868-0.007 1.301l0.001-0.066v742.4c0.92 4.776 1.446 10.269 1.446 15.885 0 48.58-39.382 87.962-87.962 87.962-5.616 0-11.109-0.526-16.432-1.532l0.547 0.086zM102.4 755.2h102.4v-51.2h102.4v51.2h409.6v-51.2h102.4v51.2h51.2v-102.4h-768v102.4zM102.4 38.4v460.8h819.2v-460.8h-819.2zM460.8 448h102.4v-102.4h-102.4v102.4zM665.6 448h102.4v-102.4h-102.4v102.4zM665.6 243.2h102.4v-102.4h-102.4v102.4zM256 243.2h102.4v-102.4h-102.4v102.4zM460.8 243.2h102.4v-102.4h-102.4v102.4z" />
<glyph unicode="&#xc105;" glyph-name="button" d="M0 294.4v256c0 47.206 24.576 51.2 73.165 51.2h899.635c48.538 0 51.2-3.994 51.2-51.2v-256c0-47.206-2.662-51.2-51.2-51.2h-899.635c-48.589 0-73.165 3.994-73.165 51.2zM972.8 499.2c0.121 1.269 0.191 2.744 0.191 4.235 0 26.043-21.112 47.155-47.155 47.155-1.491 0-2.966-0.069-4.422-0.205l0.187 0.014h-819.2c-1.269 0.121-2.744 0.191-4.235 0.191-26.043 0-47.155-21.112-47.155-47.155 0-1.491 0.069-2.966 0.205-4.422l-0.014 0.187v-153.6c-0.121-1.269-0.191-2.744-0.191-4.235 0-26.043 21.112-47.155 47.155-47.155 1.491 0 2.966 0.069 4.422 0.205l-0.187-0.014h819.2c1.269-0.121 2.744-0.191 4.235-0.191 26.043 0 47.155 21.112 47.155 47.155 0 1.491-0.069 2.966-0.205 4.422l0.014-0.187v153.6zM921.6 499.2h-819.2v-153.6h819.2v153.6z" />
<glyph unicode="&#xc106;" glyph-name="bullet-point" d="M358.4 806.4h665.6v-153.6h-665.6v153.6zM358.4 499.2h665.6v-153.6h-665.6v153.6zM358.4 192h665.6v-153.6h-665.6v153.6zM76.8 806.4c42.415 0 76.8-34.385 76.8-76.8s-34.385-76.8-76.8-76.8c-42.415 0-76.8 34.385-76.8 76.8v0c0 42.415 34.385 76.8 76.8 76.8v0zM76.8 499.2c42.415 0 76.8-34.385 76.8-76.8s-34.385-76.8-76.8-76.8c-42.415 0-76.8 34.385-76.8 76.8v0c0 42.415 34.385 76.8 76.8 76.8v0zM76.8 192c42.415 0 76.8-34.385 76.8-76.8s-34.385-76.8-76.8-76.8c-42.415 0-76.8 34.385-76.8 76.8v0c0 42.415 34.385 76.8 76.8 76.8v0z" />
<glyph unicode="&#xc107;" glyph-name="box" d="M921.6 857.6v-819.2h-819.2v819.2h819.2zM1024 960h-1024v-1024h1024v1024z" />
<glyph unicode="&#xc108;" glyph-name="bold" d="M102.4 960v-51.2h102.4v-921.6h-102.4v-51.2h535.603c157.259 2.596 283.745 130.688 283.745 288.321 0 118.762-71.796 220.755-174.352 264.945l-1.873 0.718c68.707 46.844 113.23 124.741 113.23 213.037 0 140.268-112.361 254.292-251.987 256.976l-0.251 0.004h-504.115zM358.4 908.8h126.31c113.435-5.145 204.914-92.63 216.291-203.833l0.080-0.967c0.001-0.277 0.002-0.604 0.002-0.932 0-104.828-84.415-189.94-188.977-191.067l-0.107-0.001-153.6-12.8v409.6zM358.4 448h185.088c121.87-0.192 220.591-99.031 220.591-220.928 0-1.080-0.008-2.159-0.023-3.235l0.002 0.163c0.003-0.453 0.005-0.989 0.005-1.525 0-126.294-99.406-229.371-224.245-235.255l-0.528-0.020h-180.89v460.8z" />
<glyph unicode="&#xc109;" glyph-name="back-element" d="M422.861 885.504l-396.493-378.368c-4.403-4.198-6.605-8.397-11.008-12.595-2.15-2.099-2.15-4.198-4.352-6.298s-2.202-6.246-4.403-8.346c-1.422-1.962-2.274-4.418-2.274-7.072 0-0.467 0.026-0.927 0.078-1.38l-0.005 0.055c-0.89-2.303-1.654-5.038-2.16-7.861l-0.042-0.28c0-4.454-2.202-10.752-2.202-14.899v-2.099c-0.052-0.705-0.081-1.528-0.081-2.357 0-4.418 0.838-8.641 2.363-12.518l-0.080 0.232c0-2.099 2.202-4.198 2.202-6.298s2.202-6.298 2.202-8.397c2.202-2.099 2.202-6.298 4.403-8.397s2.202-4.198 4.352-6.298c3.12-4.832 6.763-8.979 10.929-12.53l0.079-0.066v-2.099l396.493-375.552c16.095-15.405 37.967-24.888 62.054-24.888s45.96 9.483 62.087 24.92l-0.033-0.031c15.861 14.504 25.825 35.229 26.009 58.284v0.033c-0.352 23.071-10.273 43.758-25.958 58.321l-0.051 0.047-248.576 237.312h638.566c1.233-0.065 2.676-0.102 4.128-0.102 45.978 0 83.251 37.273 83.251 83.251s-37.273 83.251-83.251 83.251c-1.452 0-2.895-0.037-4.329-0.111l0.201 0.008h-638.208l248.576 237.107c15.868 14.519 25.834 35.263 26.009 58.336v0.032c-0.367 23.053-10.285 43.719-25.958 58.27l-0.051 0.047c-16.119 15.206-37.91 24.552-61.884 24.552-24.313 0-46.382-9.613-62.611-25.245l0.028 0.027z" />
<glyph unicode="&#xc110;" glyph-name="arrange" d="M512 857.6l-512-203.776 512-203.366 512 203.366zM184.32 521.267l-184.32-73.267 512-203.366 512 203.366-184.32 73.267-317.44-126.157c-3.103-1.253-6.702-1.98-10.47-1.98s-7.367 0.727-10.663 2.048l0.193-0.068zM184.32 315.341l-184.32-73.37 512-203.571 512 203.366-184.32 73.37-317.44-126.157c-3.104-1.251-6.702-1.976-10.47-1.976s-7.367 0.726-10.664 2.045l0.194-0.068z" />
<glyph unicode="&#xc111;" glyph-name="ab-testing" d="M102.4 243.2h204.8v102.4h-204.8v-102.4zM665.6 755.2v0c0 50.893-1.331 51.2-51.2 51.2h-599.040c-8.526-0.2-15.361-7.159-15.361-15.714 0-0.073 0.001-0.147 0.002-0.22v0.011-598.477c0-48.794-2.202-51.2 51.2-51.2h256v51.2h-256v460.8h256v51.2c0 53.555-1.741 51.2 51.2 51.2h307.2zM102.4 601.6v-204.8h102.4v204.8h-102.4zM256 396.8h51.2v51.2h-51.2v-51.2zM256 550.4h51.2v51.2h-51.2v-51.2zM972.8 704h-563.2c-50.176 0-51.2 0.768-51.2-51.2v-512c0-50.381-0.614-51.2 51.2-51.2h563.2c51.814 0 51.2 0.819 51.2 51.2v512c0 53.453 0 51.2-51.2 51.2zM972.8 140.8h-563.2v460.8h563.2v-460.8zM665.6 550.4h-204.8v-256h204.8v256zM614.4 345.6h-102.4v153.6h102.4v-153.6zM921.6 243.2h-460.8v-51.2h460.8v51.2zM716.8 294.4h204.8v51.2h-204.8v-51.2zM716.8 499.2h204.8v51.2h-204.8v-51.2zM716.8 396.8h204.8v51.2h-204.8v-51.2z" />
<glyph unicode="&#xcc21;" glyph-name="video" d="M945.203 678.4l-231.424-138.701v133.888c0.008 0.431 0.013 0.94 0.013 1.449 0 43.728-35.006 79.281-78.523 80.162l-0.082 0.001h-556.493c-43.644-0.827-78.707-36.401-78.707-80.166 0-0.509 0.005-1.017 0.014-1.523l-0.001 0.076v-451.123c-0.009-0.446-0.014-0.971-0.014-1.498 0-43.765 35.064-79.34 78.631-80.165l0.077-0.001h556.493c43.599 0.883 78.605 36.435 78.605 80.164 0 0.509-0.005 1.018-0.014 1.525l0.001-0.076v133.786l231.424-138.65c7.537-4.613 16.66-7.344 26.421-7.344 19.519 0 36.486 10.922 45.125 26.988l0.134 0.273c4.426 7.804 7.058 17.131 7.117 27.068v366.916c0.005 0.261 0.007 0.57 0.007 0.879 0 29.182-23.384 52.902-52.436 53.443l-0.051 0.001c-9.729-0.013-18.815-2.754-26.538-7.499l0.221 0.126z" />
<glyph unicode="&#xcc22;" glyph-name="video-not" d="M819.2 38.4s-632.678 5.632-614.4 0c-110.018 7.366-197.434 94.782-204.764 204.132l-0.036 0.668v614.4h373.76l87.040-102.4h563.2v-512c-6.118-110.561-94.24-198.683-204.24-204.775l-0.56-0.025zM51.2 806.4v-563.2c2.587-83.77 69.83-151.013 153.358-153.594l0.242-0.006h614.4c83.77 2.587 151.013 69.83 153.594 153.358l0.006 0.242v460.8h-512l-102.4 102.4h-307.2zM460.8 243.2v307.2l204.8-153.6z" />
<glyph unicode="&#xcc23;" glyph-name="ver-line" d="M460.8 960h102.4v-1024h-102.4v1024z" />
<glyph unicode="&#xcc24;" glyph-name="undo" d="M448 908.8l-448-329.165 448-329.165v197.53c244.070-61.44 514.56-89.446 576-460.8v0c-19.866 392.397-98.304 615.219-576 724.122v197.478z" />
<glyph unicode="&#xcc25;" glyph-name="underline" d="M51.2 38.4h921.6v-102.4h-921.6v102.4zM665.6 908.8l-5.427 51.2h312.627v-51.2h-51.2c-33.178 0-49.664-0.256-51.2 0-1.178-84.685-1.28-88.218 0-102.4v-358.4c0-83.61-8.243-162.202-51.2-204.8-22.187-44.791-57.609-80.213-101.105-101.818l-1.295-0.582c-53.924-32.396-118.996-51.557-188.544-51.557-5.717 0-11.404 0.129-17.058 0.386l0.803-0.029c-5.541-0.303-12.026-0.476-18.551-0.476-68.795 0-133.101 19.218-187.843 52.579l1.594-0.902c-47.116 39.755-82.654 91.828-101.753 151.27l-0.647 2.33c-2.099 74.906 0 104.294 0 204.8v307.2c0 51.2 0 102.4 0 102.4-1.536 1.587-67.482 0-99.379 0h-3.021v51.2h307.2v-51.2c-34.816 0-101.888 2.509-102.4 0-0.768-0.358 0-55.603 0-102.4v-358.4c-0.568-10.557-0.891-22.914-0.891-35.347 0-26.398 1.458-52.455 4.299-78.096l-0.284 3.159c8.663-36.592 25.409-68.432 48.307-94.785l-0.23 0.27c11.469-25.49 29.549-46.286 52.081-60.749l0.553-0.332c29.786-14.452 64.788-22.899 101.764-22.899 2.6 0 5.191 0.042 7.772 0.125l-0.377-0.010c3.203-0.126 6.964-0.197 10.741-0.197 49.206 0 95.573 12.156 136.261 33.63l-1.594-0.767c43.827 23.551 78.849 58.573 101.754 101.089l0.646 1.311c3.123 17.869 0 196.25 0 204.8v307.2c-1.061 15.312-1.666 33.185-1.666 51.2s0.605 35.887 1.795 53.599l-0.129-2.399c-7.677-0.824-16.584-1.294-25.6-1.294s-17.922 0.47-26.696 1.387l1.096-0.093h-51.2zM51.2 38.4h921.6z" />
<glyph unicode="&#xcc26;" glyph-name="top-right-corner" d="M768-64v768h-768v256h1024v-1024h-256z" />
<glyph unicode="&#xcc27;" glyph-name="top-left-corner" d="M256-64v768h768v256h-1024v-1024h256z" />
<glyph unicode="&#xcc28;" glyph-name="timer" d="M53.606 377.549c-1.579 3.291-2.502 7.154-2.502 11.233 0 6.41 2.279 12.288 6.070 16.869l-0.036-0.044 93.901 114.944c5.232 6.352 13.098 10.371 21.903 10.371 7.038 0 13.477-2.568 18.43-6.819l-0.038 0.032c1.288-1.101 2.444-2.273 3.495-3.537l0.038-0.047 93.901-114.893c3.788-4.566 6.087-10.486 6.087-16.943 0-8.078-3.597-15.315-9.278-20.198l-0.035-0.030c-4.445-3.819-10.27-6.144-16.638-6.144-0.019 0-0.037 0-0.056 0h-39.882c10.117-166.867 147.918-298.365 316.432-298.365 175.063 0 316.979 141.916 316.979 316.979s-141.916 316.979-316.979 316.979c-4.724 0-9.423-0.103-14.096-0.308l0.666 0.023c-103.244-4.901-192.97-58.661-247.099-138.514l-0.709-1.108c-1.298-1.898-3.409-3.158-5.819-3.276l-0.017-0.001c-0.165-0.013-0.358-0.020-0.553-0.020-2.422 0-4.582 1.121-5.989 2.872l-0.012 0.015-62.618 76.134c-1.047 1.308-1.681 2.986-1.681 4.813s0.633 3.505 1.693 4.828l-0.012-0.015c67.518 87.026 166.388 146.937 279.392 162.762l2.259 0.259v42.342h-41.728c-1.64-0.173-3.542-0.271-5.468-0.271-28.706 0-52.302 21.873-55.032 49.862l-0.018 0.227c-0.213 1.83-0.335 3.951-0.335 6.1 0 28.52 21.433 52.034 49.070 55.314l0.263 0.025c1.604 0.167 3.466 0.263 5.35 0.263s3.746-0.095 5.581-0.282l-0.231 0.019h194.253c0.606 0.024 1.317 0.037 2.031 0.037 29.907 0 54.278-23.698 55.361-53.34l0.003-0.099c0.045-0.833 0.070-1.808 0.070-2.789 0-29.689-23.268-53.943-52.563-55.522l-0.14-0.006q-2.406 0-4.813 0h-41.677v-42.342c79.386-10.775 149.934-42.21 207.939-88.659l-0.835 0.646 47.155 47.514c10.025 11.144 24.494 18.12 40.592 18.12 14.409 0 27.513-5.589 37.262-14.717l-0.030 0.028c11.049-10.311 17.937-24.958 17.937-41.215 0-14.564-5.528-27.836-14.6-37.834l0.042 0.047q-1.638-1.792-3.379-3.43l-47.36-48.077c54.49-71.586 87.298-162.249 87.298-260.574 0-0.516-0.001-1.032-0.003-1.547v0.080c0.073-2.961 0.115-6.449 0.115-9.946 0-234.247-187.094-424.795-420-430.364l-0.518-0.010c-1.054-0.009-2.299-0.015-3.546-0.015-236.362 0-428.19 190.669-430.066 426.588l-0.001 0.178h-41.728c-0.071-0.001-0.156-0.001-0.24-0.001-10.218 0-19.037 5.986-23.143 14.643l-0.066 0.155zM724.326 557.568c-6.208 6.361-14.867 10.306-24.448 10.306-7.96 0-15.284-2.724-21.091-7.29l0.073 0.056-122.010-98.355c-3.955 0.637-8.515 1.001-13.16 1.001-48.071 0-87.040-38.969-87.040-87.040s38.969-87.040 87.040-87.040c43.744 0 79.951 32.27 86.115 74.303l0.057 0.472c0.528 3.63 0.83 7.821 0.83 12.083s-0.302 8.453-0.885 12.554l0.055-0.47 96.717 123.29c4.734 5.969 7.594 13.61 7.594 21.919 0 9.647-3.855 18.393-10.109 24.782l0.006-0.006v-0.512z" />
<glyph unicode="&#xcc29;" glyph-name="tick-point" d="M460.8 854.579h563.2v-150.579h-563.2v150.579zM460.8 550.4h563.2v-153.6h-563.2v153.6zM460.8 192h563.2v-153.6h-563.2v153.6zM316.314 880.282v0c2.322 3 3.726 6.813 3.738 10.954v0.003c0.006 0.169 0.009 0.368 0.009 0.568 0 9.247-7.384 16.77-16.578 16.993h-0.021c-5.457-0.055-10.256-2.819-13.123-7.010l-0.036-0.055-175.77-172.134-81.664 44.749h-0.41l-2.253 1.331h-0.256c-2.054 0.714-4.422 1.127-6.886 1.127-0.045 0-0.090 0-0.135 0h0.007c-12.763-0.42-22.949-10.867-22.949-23.694 0-0.256 0.004-0.512 0.012-0.766l-0.001 0.037c-0.001-0.060-0.001-0.131-0.001-0.202 0-7.397 3.214-14.043 8.323-18.618l0.024-0.021 86.426-76.8c1.63-1.762 3.406-3.343 5.323-4.741l0.104-0.072c5.539-4.076 12.49-6.531 20.014-6.554h0.005c9.971 0.050 18.937 4.308 25.221 11.088l0.020 0.022 1.126 1.434c0.914 1.050 1.805 2.202 2.63 3.403l0.084 0.129zM316.314 551.117v0c2.325 2.999 3.73 6.813 3.738 10.955v0.002c0.005 0.155 0.008 0.337 0.008 0.519 0 9.211-7.326 16.71-16.469 16.99l-0.026 0.001c-5.457-0.055-10.256-2.819-13.123-7.010l-0.036-0.055-175.872-172.134-81.664 44.8h-0.41l-2.253 1.178h-0.256c-2.090 0.744-4.502 1.175-7.013 1.178h-0.001c-12.761-0.422-22.946-10.868-22.946-23.693 0-0.22 0.003-0.44 0.009-0.659l-0.001 0.032c-0.001-0.060-0.001-0.131-0.001-0.202 0-7.397 3.214-14.043 8.323-18.618l0.024-0.021 86.426-76.8c1.63-1.762 3.406-3.342 5.323-4.741l0.104-0.072c5.539-4.076 12.49-6.531 20.014-6.554h0.005c9.971 0.050 18.937 4.308 25.221 11.088l0.020 0.022 1.075 1.434c0.912 1.050 1.803 2.201 2.628 3.402l0.085 0.131zM316.314 221.952v0c2.269 2.982 3.636 6.759 3.636 10.855 0 0.054 0 0.107-0.001 0.161v-0.008c0.004 0.14 0.006 0.305 0.006 0.47 0 9.22-7.319 16.731-16.465 17.040l-0.028 0.001c-5.471-0.121-10.255-2.958-13.070-7.211l-0.037-0.060-175.821-171.981-81.664 44.698h-0.41l-2.253 1.331h-0.256c-2.090 0.744-4.502 1.175-7.013 1.178h-0.001c-12.761-0.422-22.946-10.868-22.946-23.693 0-0.22 0.003-0.44 0.009-0.659l-0.001 0.032c-0.001-0.060-0.001-0.131-0.001-0.202 0-7.397 3.214-14.043 8.323-18.618l0.024-0.021 86.426-76.8c1.63-1.762 3.406-3.342 5.323-4.741l0.104-0.072c5.537-4.032 12.473-6.451 19.975-6.451 0.015 0 0.031 0 0.046 0h-0.002c9.971 0.050 18.937 4.308 25.221 11.088l0.020 0.022 1.075 1.434c0.911 1.050 1.803 2.201 2.628 3.402l0.085 0.131z" />
<glyph unicode="&#xcc30;" glyph-name="text" d="M533.402 89.6l-70.81 198.298h-271.053l-69.376-198.298h-122.163l265.216 716.8h126.106l265.267-716.8h-123.187zM432.026 388.454l-66.56 194.56q-7.066 19.302-19.968 61.286t-17.818 61.542c-11.822-52.406-24.955-96.335-40.655-139.024l2.46 7.644-64.205-186.010h206.746zM1023.488 103.885c-3.777 11.758-6.765 25.639-8.403 39.93l-0.096 1.030c-1.468 12.75-2.305 27.524-2.305 42.494 0 0.307 0 0.614 0.001 0.92v-0.048 201.677c0.154 2.356 0.242 5.108 0.242 7.881 0 38.306-16.793 72.69-43.419 96.191l-0.139 0.12c-28.991 22.784-66.015 36.541-106.252 36.541-2.841 0-5.666-0.069-8.473-0.204l0.396 0.015c-2.289 0.106-4.972 0.166-7.67 0.166-41.612 0-79.871-14.355-110.094-38.384l0.363 0.278c-26.212-18.578-43.112-48.795-43.112-82.961 0-0.228 0.001-0.456 0.002-0.684v0.035l0.768-2.304h72.704c0.111 18.463 9.089 34.805 22.886 44.999l0.154 0.108c15.244 11.78 34.625 18.882 55.665 18.882 1.437 0 2.866-0.033 4.287-0.099l-0.201 0.007c1.666 0.112 3.611 0.176 5.571 0.176 22.199 0 42.479-8.214 57.968-21.768l-0.102 0.088c13.917-13.901 22.526-33.114 22.526-54.338 0-1.382-0.036-2.755-0.109-4.118l0.008 0.19v-41.421h-82.893c-3.581 0.202-7.77 0.317-11.986 0.317-44.342 0-85.708-12.741-120.636-34.763l0.936 0.551c-29.455-19.644-48.596-52.734-48.596-90.295 0-1.25 0.021-2.495 0.063-3.735l-0.005 0.18c-0.119-2.026-0.187-4.395-0.187-6.779 0-33.167 13.108-63.273 34.426-85.42l-0.038 0.039c23.913-21.004 55.468-33.82 90.016-33.82 3.367 0 6.705 0.122 10.011 0.361l-0.443-0.026c0.074 0 0.161 0 0.248 0 27.136 0 52.493 7.618 74.048 20.833l-0.619-0.353c22.199 13.036 40.706 29.958 55.139 50.007l0.361 0.528c0.274-10.576 1.177-20.676 2.676-30.581l-0.167 1.346q2.099-14.541 5.99-33.485h78.49zM767.078 176.23c-10.782 10.424-17.477 25.017-17.477 41.175 0 0.987 0.025 1.968 0.074 2.943l-0.006-0.137c0.307 22.204 11.021 41.844 27.475 54.3l0.173 0.126c18.584 14.522 42.281 23.286 68.025 23.286 1.988 0 3.964-0.052 5.926-0.155l-0.274 0.012h85.453v-67.891c-8.922-20.793-23.957-37.546-42.824-48.38l-0.492-0.26c-20.645-13.334-45.87-21.259-72.946-21.259-0.599 0-1.197 0.004-1.794 0.012l0.091-0.001c-1.569-0.12-3.397-0.189-5.242-0.189-17.55 0-33.653 6.196-46.24 16.521l0.128-0.102z" />
<glyph unicode="&#xcc31;" glyph-name="strokthrough" d="M0 448h1024v-51.2h-1024v51.2zM232.346 520.038h361.574l-122.88 59.29c-52.751 21.544-97.563 52.669-134.224 91.562l-0.176 0.189c-21.305 26.399-34.199 60.358-34.199 97.329 0 1.369 0.018 2.734 0.053 4.094l-0.004-0.201c1.49 35.501 19.155 66.589 45.772 86.26l0.308 0.217c30.417 24.402 69.481 39.163 111.993 39.163 2.983 0 5.949-0.073 8.896-0.216l-0.415 0.016c2.702 0.111 5.872 0.175 9.058 0.175 58.264 0 111.578-21.199 152.648-56.304l-0.323 0.27c51.973-57.054 88.782-128.786 103.531-208.264l0.405-2.628h35.123v329.011h-35.43c-5.487-12.737-13.041-23.589-22.351-32.643l-0.023-0.022c-6.752-4.692-15.123-7.496-24.15-7.496-0.87 0-1.735 0.026-2.592 0.077l0.118-0.006c-26.892 2.82-51.48 8.397-74.876 16.524l2.325-0.703c-41.384 13.852-89.138 22.606-138.694 24.247l-0.826 0.022c-3.486 0.148-7.576 0.232-11.686 0.232-78.284 0-149.422-30.598-202.106-80.487l0.135 0.126c-51.001-48.643-82.713-117.123-82.713-193.009 0-2.238 0.028-4.469 0.082-6.694l-0.006 0.329c-0.108-2.668-0.17-5.801-0.17-8.947 0-53.95 18.1-103.672 48.559-143.425l-0.415 0.565c2.253-2.867 5.018-5.786 7.68-8.653zM532.48 335.974c38.281-20.766 71.328-43.967 101.411-70.455l-0.598 0.516c31.847-29.788 51.694-72.065 51.694-118.978 0-1.156-0.012-2.309-0.036-3.46l0.003 0.172c0.003-0.318 0.004-0.695 0.004-1.072 0-40.545-17.879-76.914-46.182-101.654l-0.158-0.135c-29.886-26.625-69.504-42.894-112.922-42.894-2.44 0-4.868 0.051-7.282 0.153l0.345-0.012c-73.058 0.167-139.433 28.645-188.764 75.039l0.143-0.133c-59.506 57.918-100.578 134.505-113.747 220.286l-0.275 2.178h-35.174v-344.678h35.226c6.066 15.775 20.874 26.87 38.337 27.391l0.063 0.001c20.845-0.912 40.491-4.721 58.975-11.037l-1.477 0.439c60.987-18.59 131.254-30.025 203.953-31.576l0.847-0.014c0.373-0.001 0.815-0.002 1.257-0.002 85.403 0 163.691 30.458 224.596 81.105l-0.573-0.463c61.546 47.867 100.764 121.93 100.764 205.153 0 2.594-0.038 5.18-0.114 7.756l0.009-0.378c0.002 0.395 0.004 0.861 0.004 1.328 0 38.379-9.019 74.652-25.053 106.814l0.627-1.39h-285.901z" />
<glyph unicode="&#xcc32;" glyph-name="space" d="M512 960l204.8-256h-102.4v-153.6h-204.8v153.6h-102.4zM512-64l204.8 256h-102.4v153.6h-204.8v-153.6h-102.4zM102.4 499.2h819.2v-102.4h-819.2v102.4z" />
<glyph unicode="&#xcc33;" glyph-name="social-media" d="M776.294 200.704c-0.1 0-0.219 0-0.338 0-35.436 0-68.040-12.125-93.89-32.453l0.327 0.248-305.971 219.597c10.444 17.084 16.629 37.759 16.629 59.878s-6.184 42.794-16.919 60.39l0.29-0.511 305.92 219.802c25.522-20.111 58.139-32.256 93.593-32.256 0.108 0 0.216 0 0.325 0h-0.017c1.868-0.090 4.058-0.141 6.26-0.141 74.514 0 135.359 58.521 139.083 132.109l0.013 0.333c-3.711 73.916-64.545 132.442-139.048 132.442-2.201 0-4.39-0.051-6.566-0.152l0.308 0.011c-1.836 0.087-3.989 0.136-6.153 0.136-74.492 0-135.313-58.529-138.986-132.109l-0.013-0.328c0.229-22.055 6.284-42.648 16.695-60.374l-0.311 0.572-305.766-219.802c-25.62 20.113-58.329 32.256-93.875 32.256-0.045 0-0.090 0-0.136 0h0.007c-1.853 0.088-4.025 0.138-6.209 0.138-74.541 0-135.409-58.542-139.135-132.158l-0.013-0.333c3.766-73.925 64.622-132.439 139.145-132.439 2.185 0 4.358 0.050 6.518 0.15l-0.306-0.011c0.093 0 0.203 0 0.312 0 35.47 0 68.113 12.103 94.024 32.405l-0.333-0.252 305.818-219.802c-10.103-17.136-16.158-37.713-16.383-59.686l-0.001-0.065c3.659-73.903 64.469-132.437 138.95-132.437 2.163 0 4.315 0.049 6.454 0.147l-0.303-0.011c1.866-0.089 4.053-0.14 6.253-0.14 74.539 0 135.396 58.582 139.040 132.218l0.013 0.326c-3.711 73.916-64.545 132.442-139.048 132.442-2.201 0-4.39-0.051-6.566-0.152l0.308 0.011z" />
<glyph unicode="&#xcc34;" glyph-name="slider" d="M716.8 601.6l153.6-153.6-153.6-153.6v102.4l51.2 51.2-51.2 51.2v102.4zM307.2 601.6l-153.6-153.6 153.6-153.6v102.4l-51.2 51.2 51.2 51.2v102.4zM0 755.2v-614.4h1024v614.4h-1024zM972.8 192h-921.6v512h921.6v-512z" />
<glyph unicode="&#xcc35;" glyph-name="shapes" d="M220.16 448l-220.16-109.926v-291.84l220.16-110.234 220.16 110.080v291.84zM803.84 448l-220.16-110.080v-291.84l220.16-110.080 220.16 110.080v291.84zM512 960.307l-220.16-110.080v-291.84l220.16-110.387 220.16 110.080v291.84z" />
<glyph unicode="&#xcc36;" glyph-name="setting" d="M1024 415.488c0-0.030 0-0.066 0-0.102 0-28.983-20.923-53.079-48.488-58.009l-0.357-0.053-76.8-13.414c-9.924-36.282-23.46-67.996-40.645-97.312l1.016 1.875 44.8-63.898c6.705-9.437 10.719-21.194 10.719-33.889 0-16.305-6.622-31.063-17.322-41.732l-46.081-46.081c-10.664-10.711-25.422-17.339-41.728-17.339-12.699 0-24.458 4.020-34.076 10.857l0.182-0.123-63.539 44.954c-27.442-16.173-59.156-29.709-92.646-38.97l-2.791-0.658-14.694-76.8c-5.004-27.897-29.088-48.794-58.053-48.794-0.039 0-0.078 0-0.116 0h-64.045c-0.030 0-0.066 0-0.102 0-28.983 0-53.079 20.923-58.009 48.488l-0.053 0.357-13.414 76.8c-36.281 9.91-67.995 23.429-97.316 40.594l1.879-1.017-63.693-44.8c-9.437-6.705-21.194-10.719-33.889-10.719-16.305 0-31.063 6.622-41.732 17.322l-46.081 46.081c-10.702 10.671-17.324 25.429-17.324 41.734 0 12.695 4.014 24.452 10.842 34.071l-0.123-0.182 44.8 63.59c-16.176 27.443-29.713 59.157-38.971 92.648l-0.658 2.789-76.8 13.414c-27.848 5.047-48.692 29.107-48.692 58.035 0 0.099 0 0.198 0.001 0.297v-0.015 64.973c0.377 28.634 21.119 52.315 48.384 57.239l0.359 0.054 76.8 13.414c9.805 36.667 23.337 68.755 40.596 98.407l-1.018-1.895-44.8 63.898c-6.705 9.437-10.719 21.194-10.719 33.889 0 16.305 6.622 31.063 17.322 41.732l46.081 46.081c10.671 10.702 25.429 17.324 41.734 17.324 12.695 0 24.452-4.014 34.071-10.842l-0.182 0.123 63.693-45.158c27.442 16.174 59.156 29.71 92.646 38.97l2.791 0.658 13.414 76.8c4.982 27.922 29.079 48.845 58.062 48.845 0.036 0 0.071 0 0.107 0h64.968c28.678-0.391 52.38-21.207 57.24-48.54l0.052-0.356 13.414-76.8c36.74-9.798 68.899-23.35 98.609-40.646l-1.893 1.017 63.898 44.8c9.437 6.705 21.194 10.719 33.889 10.719 16.305 0 31.063-6.622 41.732-17.322l46.081-46.081c10.702-10.671 17.324-25.429 17.324-41.734 0-12.695-4.014-24.452-10.842-34.071l0.123 0.182-45.363-63.488c16.167-27.442 29.703-59.155 38.969-92.642l0.66-2.795 76.8-13.414c27.997-4.918 48.999-29.050 48.999-58.088 0-0.098 0-0.197-0.001-0.295v0.015-64.973zM687.514 448c-0.029 96.996-78.667 175.616-175.667 175.616-97.018 0-175.667-78.649-175.667-175.667s78.649-175.667 175.667-175.667c0.054 0 0.108 0 0.162 0h-0.008c96.952 0.088 175.514 78.703 175.514 175.667 0 0.018 0 0.036 0 0.054v-0.003z" />
<glyph unicode="&#xcc37;" glyph-name="select-all-corners" d="M308.224 192h-87.398c-62.678 0.655-118.508 29.415-155.576 74.254l-0.276 0.344c-40.046 47.446-64.386 109.282-64.386 176.803 0 1.365 0.010 2.727 0.030 4.087l-0.002-0.206c-0.011 0.904-0.017 1.972-0.017 3.042 0 67.948 24.511 130.171 65.174 178.309l-0.338-0.411c37.418 45.283 93.271 74.182 155.901 75.109l0.156 0.002h87.347c70.672-1.243 132.637-37.41 169.514-91.935l0.47-0.737c6.058-8.678 9.68-19.447 9.68-31.063 0-14.85-5.919-28.317-15.528-38.171l0.011 0.011c-6.967-6.964-16.591-11.272-27.22-11.272-13.59 0-25.535 7.041-32.387 17.673l-0.092 0.152c-22.943 34.053-61.055 56.363-104.426 57.189l-0.124 0.002h-87.347c-38.626-0.515-73.007-18.254-95.882-45.869l-0.17-0.211c-24.827-30.057-39.886-68.98-39.886-111.42 0-42.27 14.938-81.050 39.823-111.351l-0.244 0.306c22.969-27.871 57.34-45.63 95.873-46.079l0.076-0.001h87.398c43.382 1.003 81.369 23.216 104.108 56.638l0.289 0.45c6.973 10.752 18.916 17.765 32.497 17.765 10.638 0 20.272-4.303 27.254-11.264l-0.001 0.001c9.48-9.798 15.323-23.165 15.323-37.898 0-11.732-3.705-22.599-10.009-31.494l0.114 0.17c-37.377-55.156-99.163-91.332-169.488-92.924l-0.24-0.004zM784.998 497.613c23.839-1.94 42.451-21.765 42.451-45.937 0-1.113-0.039-2.217-0.117-3.311l0.008 0.147c0.076-0.989 0.119-2.142 0.119-3.305 0-24.23-18.701-44.092-42.456-45.94l-0.158-0.010-544.614-0.922c-12.059 0.137-22.8 5.66-29.951 14.271l-0.052 0.065c-7.71 9.155-12.395 21.078-12.395 34.096 0 0.235 0.002 0.47 0.005 0.704v-0.036c-0.076 0.989-0.119 2.142-0.119 3.305 0 24.23 18.701 44.092 42.456 45.94l0.158 0.010zM803.84 193.024h-87.45c-62.51 0.779-118.171 29.446-155.222 74.107l-0.273 0.338q-7.526 8.755-14.387 18.381c-6.058 8.678-9.68 19.447-9.68 31.063 0 14.85 5.919 28.317 15.528 38.171l-0.011-0.011c6.967 6.964 16.591 11.272 27.22 11.272 13.59 0 25.535-7.041 32.387-17.673l0.092-0.152c22.963-34.008 61.036-56.299 104.365-57.188l0.134-0.002h87.398c76.569 6.519 136.248 70.278 136.248 147.975 0 3.384-0.113 6.742-0.336 10.069l0.024-0.451c0.222 3.029 0.348 6.562 0.348 10.124 0 77.369-59.608 140.817-135.405 146.923l-0.521 0.034-87.501-0.102c-43.536-1.043-81.626-23.443-104.309-57.089l-0.292-0.46c-6.958-10.841-18.95-17.922-32.597-17.922-10.589 0-20.182 4.263-27.157 11.167l0.003-0.003c-9.535 9.838-15.412 23.269-15.412 38.073 0 11.651 3.64 22.452 9.846 31.327l-0.117-0.177c37.419 55.299 99.325 91.577 169.794 93.18l0.241 0.004h87.398c121.6 0 220.416-114.33 220.16-255.283s-99.021-255.488-220.518-255.693z" />
<glyph unicode="&#xcc38;" glyph-name="search" d="M719.206 293.734c68.335 69.138 110.558 164.214 110.592 269.152v0.006c-5.738 220.565-185.904 397.176-407.32 397.176-2.638 0-5.27-0.025-7.896-0.075l0.393 0.006c-2.278 0.046-4.964 0.072-7.656 0.072-221.417 0-401.583-176.613-407.309-396.649l-0.011-0.53c5.74-220.564 185.905-397.174 407.32-397.174 2.602 0 5.198 0.024 7.789 0.073l-0.389-0.006c0.153 0 0.335 0 0.517 0 86.298 0 166.636 25.514 233.883 69.411l-1.645-1.007 297.318-284.57c8.305-8.145 19.693-13.172 32.256-13.172s23.951 5.027 32.263 13.18l-0.007-0.007c8.507 7.619 13.836 18.637 13.836 30.899s-5.329 23.28-13.797 30.865l-0.039 0.035zM417.126 254.003c-1.706-0.033-3.717-0.052-5.733-0.052-172.226 0-312.366 137.377-316.819 308.529l-0.008 0.412c4.461 171.565 144.601 308.941 316.827 308.941 2.016 0 4.027-0.019 6.034-0.056l-0.301 0.004c1.706 0.033 3.717 0.052 5.733 0.052 172.226 0 312.366-137.377 316.819-308.529l0.008-0.412c-4.491-171.541-144.619-308.888-316.826-308.888-1.962 0-3.92 0.018-5.874 0.053l0.294-0.004z" />
<glyph unicode="&#xcc39;" glyph-name="save" d="M307.2 908.8v-204.8c0-50.586-1.28-51.2 51.2-51.2h307.2c54.426 0 51.2 0.614 51.2 51.2v204.8c0 50.586-1.28 51.2 51.2 51.2h40.602c0.014 0 0.030 0 0.046 0 7.058 0 13.449-2.856 18.080-7.476l189.797-189.797c4.619-4.63 7.475-11.021 7.475-18.079 0-0.016 0-0.032 0-0.048v0.002-783.002c0-14.138-11.462-25.6-25.6-25.6v0h-972.8c-14.138 0-25.6 11.462-25.6 25.6v0 972.8c0 14.138 11.462 25.6 25.6 25.6v0h256c15.585-11.15 25.622-29.191 25.622-49.576 0-0.571-0.008-1.14-0.024-1.707l0.002 0.084zM537.6 960h51.2c14.138 0 25.6-11.462 25.6-25.6v0-153.6c0-14.138-11.462-25.6-25.6-25.6v0h-51.2c-14.138 0-25.6 11.462-25.6 25.6v0 153.6c0 14.138 11.462 25.6 25.6 25.6v0zM102.4 524.8v-460.8c0-14.138 11.462-25.6 25.6-25.6v0h768c14.138 0 25.6 11.462 25.6 25.6v0 460.8c0 14.138-11.462 25.6-25.6 25.6v0h-768c-14.138 0-25.6-11.462-25.6-25.6v0z" />
<glyph unicode="&#xcc40;" glyph-name="sample-icon" d="M0 652.8h358.4l307.2 256v-307.2l304.128 196.966c5.282 3.544 11.783 5.656 18.778 5.656 12.857 0 24.047-7.137 29.825-17.665l0.089-0.177c3.399-5.729 5.408-12.629 5.408-19.998 0-13.285-6.529-25.046-16.553-32.247l-0.118-0.081-341.555-234.854 322.56-13.107s-15.36 13.107-15.36 13.107c25.656-5.472 45.549-25.245 51.118-50.402l0.082-0.439c-5.498-25.843-25.416-45.881-50.758-51.477l-0.442-0.082h-307.2l341.146-234.445c10.379-7.248 17.084-19.137 17.084-32.591 0-7.222-1.932-13.993-5.307-19.824l0.102 0.191c-5.938-10.866-17.233-18.144-30.24-18.278h-0.019c-6.786 0.020-13.092 2.062-18.35 5.555l0.123-0.077-294.298 191.488-10.24-45.619v-256l-307.2 256-358.4 0.614v408.986z" />
<glyph unicode="&#xcc41;" glyph-name="rotate" d="M51.2 908.8l-51.2-374.63 353.28 117.76zM464.23-64c-60.673 5.473-116.475 20.932-167.59 44.76l3.085-1.291 42.65 93.286c38.283-17.874 82.756-30.099 129.551-34.246l1.521-0.109zM577.382-62.003l-12.8 101.786c48.416 6.199 92.351 19.955 132.501 40.136l-2.351-1.071 45.312-91.648c-47.233-23.978-102.138-41.248-160.102-48.778l-2.561-0.272zM202.291 38.707c-44.956 35.234-83.046 76.63-113.697 123.344l-1.196 1.942 85.76 56.32c25.475-38.968 55.944-72.125 91.019-99.682l0.885-0.67zM835.584 48.64l-64.614 79.667c35.243 28.828 65.028 62.654 88.704 100.679l0.999 1.721 87.040-54.016c-30.907-49.66-68.129-91.95-111.233-127.339l-0.895-0.713zM996.352 279.040l-96.922 33.178c14.052 39.943 22.17 85.999 22.17 133.951 0 0.284 0 0.567-0.001 0.851v-0.044h102.4c0.001-0.279 0.001-0.609 0.001-0.94 0-59.782-10.124-117.2-28.752-170.632l1.103 3.636zM1024 446.976h-102.4c0 0.046 0 0.1 0 0.155 0 226.391-183.278 409.974-409.553 410.469h-0.048c-1.85 0.031-4.033 0.049-6.22 0.049-149.91 0-280.277-83.671-346.949-206.86l-1.032-2.085-90.266 48.179c84.916 157.75 248.871 263.167 437.447 263.167 2.468 0 4.933-0.018 7.393-0.054l-0.373 0.004c282.883-0.612 511.971-230.060 512-513.021v-0.003z" />
<glyph unicode="&#xcc42;" glyph-name="right" d="M98.867 540.16l-98.867-87.962 317.798-362.598 706.202 628.787-98.867 88.013-583.68-557.568z" />
<glyph unicode="&#xcc43;" glyph-name="right-bottom-corner" d="M768 960v-768h-768v-256h1024v1024h-256z" />
<glyph unicode="&#xcc44;" glyph-name="right-aligement" d="M1024 806.4h-1024v-102.4h1024v102.4zM1024 601.6h-716.8v-102.4h716.8v102.4zM1024 396.8h-1024v-102.4h1024v102.4zM1024 192h-716.8v-102.4h716.8v102.4z" />
<glyph unicode="&#xcc45;" glyph-name="redo" d="M576 908.8l448-329.165-448-329.165v197.53c-244.070-61.44-514.56-89.446-576-460.8v0c19.866 392.397 98.304 615.219 576 724.122v197.478z" />
<glyph unicode="&#xcc46;" glyph-name="publish" d="M389.12 662.016l-267.418-83.302-120.781-144.947 218.931-35.328c-11.568-26.498-23.498-59.818-33.445-93.982l-1.576-6.318-5.632-20.122 161.28-160.973 20.48 5.837c40.555 11.507 73.929 23.422 106.327 37.186l-5.872-2.216 35.379-218.522 144.998 120.166 83.456 267.11c163.311 148.774 272.152 354.868 294.569 586.253l0.292 3.724 3.891 43.418-43.52-3.891c-235.46-22.445-442.004-131.015-590.74-293.406l-0.62-0.687zM745.062 513.024c-21.526-21.45-51.224-34.711-84.019-34.711-65.744 0-119.040 53.296-119.040 119.040s53.296 119.040 119.040 119.040c65.744 0 119.040-53.296 119.040-119.040 0-0.019 0-0.038 0-0.056v0.003c0-0.066 0-0.145 0-0.223 0-32.862-13.391-62.596-35.013-84.044l-0.008-0.008zM174.080 212.224c-53.29-3.976-99.969-29.366-131.958-67.495l-0.24-0.294c-27.807-35.75-44.58-81.28-44.58-130.728 0-9.979 0.683-19.798 2.005-29.414l-0.126 1.115 4.506-43.725 43.93-4.454c7.65-0.785 16.53-1.232 25.515-1.232 0.48 0 0.96 0.001 1.439 0.004h-0.074c1.422-0.035 3.098-0.055 4.778-0.055 48.329 0 92.789 16.562 128.015 44.32l-0.441-0.335c38.36 32.090 63.726 78.608 67.699 131.101l0.039 0.637 2.304 23.654-79.411 79.206z" />
<glyph unicode="&#xcc47;" glyph-name="progress-bar" d="M102.4 652.8h102.4v-409.6h-102.4v409.6zM256 652.8h102.4v-409.6h-102.4v409.6zM409.6 652.8h102.4v-409.6h-102.4v409.6zM563.2 652.8h102.4v-409.6h-102.4v409.6zM0 755.2v-614.4h1024v614.4h-1024zM972.8 192h-921.6v512h921.6v-512z" />
<glyph unicode="&#xcc48;" glyph-name="preview" d="M512 755.2c-199.68-8.192-378.317-174.746-511.181-306.33l-0.819-0.87c0 0 284.467-307.2 512-307.2s512 307.2 512 307.2c0 0-284.467 307.2-512 307.2zM512 612.557l-0.157-0.002c1.050 0.019 2.101 0.029 3.156 0.029 91.518 0 165.912-73.318 167.651-164.584l-0.003-0.165c-1.765-91.106-76.171-164.418-167.699-164.418-1.037 0-2.071 0.009-2.948 0.026l0.155 0.002c-1.032-0.019-2.067-0.028-3.103-0.028-91.528 0-165.934 73.312-167.702 164.583l0.003 0.165c1.765 91.106 76.171 164.418 167.699 164.418 1.037 0 2.071-0.009 2.948-0.026zM512 365.722c44.151 1.672 79.309 37.867 79.309 82.274 0 45.469-36.86 82.33-82.33 82.33-45.468 0-82.327-36.858-82.33-82.325v0c0.884-45.636 38.087-82.292 83.851-82.292 0.527 0 1.053 0.005 1.578 0.015l-0.079-0.001zM512 755.2c227.533 0 512-307.2 512-307.2s-284.467-307.2-512-307.2-512 307.2-512 307.2l0.819 0.87c132.864 131.584 311.501 298.138 511.181 306.33v0zM512.922 711.27c-96.995-10.029-184.145-45.554-256.585-99.68l1.353 0.967c-72.283-51.679-135.84-105.895-194.457-165.016l-0.103-0.104 16.742-16.23c36.443-34.823 75.251-68.341 115.698-99.855l3.393-2.545c117.146-90.419 226.56-144.128 313.037-144.128s195.891 53.709 312.883 143.974c43.84 34.063 82.649 67.581 119.672 102.951l-0.581-0.551 17.357 16.947-17.306 16.794c-36.443 34.819-75.251 68.337-115.696 99.854l-3.395 2.546c-60.826 49.615-130.79 91.355-206.416 122.051l-5.449 1.955c-29.589 11.345-63.802 18.578-99.501 20.049l-0.646 0.021zM512 656.435c1.123 0.021 2.447 0.034 3.775 0.034 115.929 0 210.168-92.863 212.389-208.261l0.003-0.208c-2.224-115.605-96.463-208.469-212.392-208.469-1.327 0-2.651 0.012-3.973 0.036l0.198-0.003c-1.123-0.021-2.447-0.034-3.775-0.034-115.929 0-210.168 92.863-212.389 208.261l-0.003 0.208c2.224 115.605 96.463 208.469 212.392 208.469 1.327 0 2.651-0.012 3.973-0.036l-0.198 0.003zM512 612.557c-0.877 0.017-1.911 0.026-2.948 0.026-91.528 0-165.934-73.312-167.699-164.418l-0.003-0.165c1.768-91.271 76.173-164.583 167.702-164.583 1.037 0 2.071 0.009 3.103 0.028l-0.155-0.002c0.877-0.017 1.911-0.026 2.948-0.026 91.528 0 165.934 73.312 167.699 164.418l0.003 0.165c-1.739 91.266-76.133 164.584-167.651 164.584-1.054 0-2.106-0.010-3.156-0.029l0.157 0.002zM512 530.278c44.151-1.672 79.309-37.867 79.309-82.274 0-45.469-36.86-82.33-82.33-82.33-45.468 0-82.327 36.858-82.33 82.325v0c0.884 45.636 38.087 82.292 83.851 82.292 0.527 0 1.053-0.005 1.578-0.015l-0.079 0.001zM512 486.4c-20.582-0.793-36.966-17.67-36.966-38.373 0-21.208 17.192-38.4 38.4-38.4 21.198 0 38.385 17.177 38.4 38.372v0.001c-0.399 21.296-17.756 38.407-39.11 38.407-0.254 0-0.508-0.002-0.761-0.007l0.038 0.001z" />
<glyph unicode="&#xcc49;" glyph-name="popup" d="M921.6 960h-819.2c-0.14 0.001-0.306 0.001-0.472 0.001-55.76 0-101.063-44.769-101.927-100.323l-0.001-0.081v-585.114c0-56.883 45.773-82.483 102.4-82.483h51.2l-5.427-212.275c-0.183-1.434-0.287-3.094-0.287-4.777 0-14.675 7.915-27.501 19.709-34.442l0.187-0.102c4.722-2.856 10.426-4.546 16.525-4.546 1.068 0 2.124 0.052 3.166 0.153l-0.132-0.010c0.49-0.026 1.064-0.041 1.641-0.041 8.637 0 16.492 3.347 22.339 8.814l-0.019-0.017 300.698 247.245h409.6c4.27-0.732 9.188-1.15 14.204-1.15 47.129 0 85.636 36.914 88.186 83.407l0.010 0.226v585.114c-0.864 55.635-46.168 100.404-101.928 100.404-0.166 0-0.332 0-0.498-0.001h0.026zM768 396.8h-512v102.4h512v-102.4zM768 652.8h-512v102.4h512v-102.4z" />
<glyph unicode="&#xcc50;" glyph-name="polygon" d="M1024 568.986l-195.686-632.986h-632.832l-195.482 632.986 512 391.014zM512 755.2l-358.4-256 153.6-460.8h409.6l153.6 460.8z" />
<glyph unicode="&#xcc51;" glyph-name="peregraph" d="M0 652.8h1024v-102.4h-1024v102.4zM0 499.2h1024v-102.4h-1024v102.4zM0 345.6h1024v-102.4h-1024v102.4zM0 192h716.8v-102.4h-716.8v102.4zM0 806.4h1024v-102.4h-1024v102.4z" />
<glyph unicode="&#xcc52;" glyph-name="number-point" d="M357.376 857.6h666.624v-153.6h-666.624v153.6zM357.376 499.2h666.624v-153.6h-666.624v153.6zM357.376 140.8h666.624v-153.6h-666.624v153.6zM152.218 960l-133.12-10.598v-37.53l81.869-3.072v-256h51.2v307.2zM210.33 338.227h-139.878l-0.614 1.28 69.069 71.68c16.684 17.378 32.010 36.347 45.636 56.557l0.956 1.504c9.336 14.125 14.937 31.434 15.053 50.043v0.030c0.037 0.929 0.059 2.020 0.059 3.115 0 23.774-10.002 45.212-26.028 60.335l-0.041 0.038c-17.318 14.967-40.053 24.085-64.918 24.085-2.073 0-4.13-0.063-6.171-0.188l0.28 0.014c-1.746 0.104-3.787 0.163-5.842 0.163-27.562 0-52.645-10.613-71.385-27.975l0.068 0.062c-16.771-16.189-27.185-38.869-27.185-63.981 0-1.483 0.036-2.958 0.108-4.424l-0.008 0.206 0.512-1.331h50.022c-0.066 1.060-0.103 2.298-0.103 3.545 0 14.421 5.019 27.67 13.405 38.096l-0.092-0.118c9.291 9.425 22.198 15.263 36.469 15.263 1.419 0 2.824-0.058 4.213-0.171l-0.183 0.012c0.558 0.027 1.212 0.042 1.87 0.042 12.284 0 23.32-5.341 30.914-13.827l0.035-0.040c7.556-8.734 12.16-20.203 12.16-32.748 0-0.565-0.009-1.128-0.028-1.689l0.002 0.082c-0.251-12.351-3.699-23.846-9.546-33.757l0.176 0.323c-10.161-16.526-21.425-30.852-34.13-43.756l0.030 0.031-101.069-108.186v-35.174h206.182v40.96zM64.051 75.264h35.84c1.361 0.12 2.944 0.188 4.543 0.188 13.243 0 25.391-4.69 34.873-12.5l-0.094 0.075c7.989-8.914 12.873-20.753 12.873-33.733 0-1.48-0.064-2.946-0.188-4.394l0.013 0.188c0.056-0.859 0.088-1.863 0.088-2.874 0-13.043-5.342-24.839-13.958-33.318l-0.006-0.006c-9.336-7.979-21.55-12.835-34.898-12.835-1.070 0-2.132 0.031-3.187 0.093l0.146-0.007c-0.785-0.042-1.705-0.065-2.63-0.065-13.089 0-25.068 4.75-34.309 12.62l0.074-0.062c-8.552 7.725-13.903 18.855-13.903 31.234 0 0.54 0.010 1.077 0.030 1.611l-0.002-0.077h-49.664l-0.41-1.28c-0.14-1.675-0.22-3.626-0.22-5.595 0-23.112 11.025-43.649 28.103-56.639l0.175-0.128c18.899-14.111 42.719-22.593 68.52-22.593 1.363 0 2.721 0.024 4.073 0.071l-0.196-0.005c1.401-0.061 3.045-0.096 4.697-0.096 26.599 0 51.078 9.075 70.51 24.298l-0.25-0.189c18.022 14.891 29.42 37.244 29.42 62.26 0 1.278-0.030 2.55-0.089 3.814l0.007-0.179c0.006 0.344 0.009 0.749 0.009 1.156 0 15.558-4.667 30.027-12.677 42.081l0.175-0.281c-9.414 13.242-22.793 23.123-38.389 27.969l-0.523 0.14c14.253 6.144 25.979 15.863 34.386 28.047l0.174 0.266c7.45 10.524 11.968 23.586 12.134 37.694v0.041c0.085 1.375 0.134 2.983 0.134 4.601 0 23.805-10.502 45.158-27.125 59.677l-0.093 0.080c-18.271 14.208-41.539 22.779-66.809 22.779-2.002 0-3.991-0.054-5.966-0.16l0.275 0.012c-1.234 0.052-2.682 0.081-4.138 0.081-25.432 0-48.758-9.019-66.953-24.033l0.179 0.143c-16.313-13.066-26.67-32.983-26.67-55.32 0-1.306 0.035-2.605 0.105-3.894l-0.008 0.18 0.41-1.024h49.92c-0.017 0.434-0.027 0.943-0.027 1.454 0 11.787 5.139 22.373 13.299 29.641l0.040 0.035c8.649 7.382 19.959 11.873 32.318 11.873 0.753 0 1.501-0.017 2.246-0.050l-0.106 0.004c1.033 0.080 2.238 0.126 3.453 0.126 12.215 0 23.353-4.615 31.764-12.195l-0.042 0.038c7.456-8.193 12.021-19.132 12.021-31.137 0-1.024-0.033-2.041-0.099-3.048l0.007 0.137c0.065-0.954 0.102-2.068 0.102-3.19 0-11.996-4.231-23.004-11.283-31.612l0.070 0.088c-8.312-7.717-19.487-12.452-31.767-12.452-1.579 0-3.139 0.078-4.677 0.231l0.194-0.016h-35.84v-40.038z" />
<glyph unicode="&#xcc53;" glyph-name="my-computer" d="M1024 792.781c0 65.741 10.24 64.819-51.2 64.819h-921.6c-63.488 0-51.2-1.024-51.2-64.819v-565.76c0-38.707-1.946-31.334 51.2-35.021h921.6c51.2 5.478 47.514-2.048 51.2 35.021v565.76zM972.8 294.4h-921.6v512h921.6v-512zM307.2 192h409.6v-153.6h-409.6v153.6z" />
<glyph unicode="&#xcc54;" glyph-name="move" d="M512 960l-204.8-204.8h153.6v-256h-256v153.6l-204.8-204.8 204.8-204.8v153.6h256v-256h-153.6l204.8-204.8 204.8 204.8h-153.6v256h256v-153.6l204.8 204.8-204.8 204.8v-153.6h-256v256h153.6z" />
<glyph unicode="&#xcc55;" glyph-name="more" d="M902.4 550.4c67.566-1.836 121.639-57.045 121.639-124.885 0-1.095-0.014-2.188-0.042-3.276l0.003 0.161c0.098-1.826 0.154-3.963 0.154-6.114 0-67.243-54.511-121.754-121.754-121.754s-121.754 54.511-121.754 121.754c0 2.15 0.056 4.288 0.166 6.411l-0.012-0.297c-0.025 0.928-0.039 2.020-0.039 3.115 0 67.839 54.073 123.049 121.469 124.881l0.169 0.004zM512 550.4c1.435 0.058 3.12 0.091 4.813 0.091 70.692 0 128-57.308 128-128s-57.308-128-128-128c-70.661 0-127.948 57.256-128 127.905v0.005c-0.014 0.693-0.022 1.51-0.022 2.329 0 68.545 54.867 124.276 123.079 125.669l0.13 0.002zM121.6 550.4c67.566-1.836 121.639-57.045 121.639-124.885 0-1.095-0.014-2.188-0.042-3.276l0.003 0.161c0.025-0.928 0.039-2.020 0.039-3.115 0-67.839-54.073-123.049-121.469-124.881l-0.169-0.004c-67.566 1.836-121.639 57.045-121.639 124.885 0 1.095 0.014 2.188 0.042 3.276l-0.003-0.161c-0.025 0.928-0.039 2.020-0.039 3.115 0 67.839 54.073 123.049 121.469 124.881l0.169 0.004z" />
<glyph unicode="&#xcc56;" glyph-name="mobile" d="M689.92 960h-355.686c-0.589 0.016-1.282 0.026-1.977 0.026-41.368 0-75.045-32.926-76.254-74.001l-0.003-0.111v-898.714c0-40.96 8.141-51.2 51.2-51.2h409.6c43.059 0 51.2 10.24 51.2 51.2v898.714c-1.214 41.184-34.891 74.108-76.257 74.108-0.641 0-1.28-0.008-1.918-0.024l0.094 0.002zM512-12.8c-28.277 0-51.2 22.923-51.2 51.2s22.923 51.2 51.2 51.2c28.277 0 51.2-22.923 51.2-51.2v0c0.010-0.371 0.015-0.807 0.015-1.244 0-27.598-22.373-49.971-49.971-49.971-0.438 0-0.874 0.006-1.309 0.017l0.064-0.001zM716.8 140.8h-409.6v716.8h409.6v-716.8z" />
<glyph unicode="&#xcc57;" glyph-name="link" d="M708.25 511.078c-26.715 59.674-73.447 106.406-131.477 132.46l-1.643 0.66-85.76-85.658c-4.527-4.559-8.593-9.585-12.118-14.997l-0.221-0.363c73.040-5.363 130.267-65.94 130.267-139.882 0-37.671-14.854-71.874-39.024-97.069l0.046 0.049c-0.461-0.461-0.768-1.024-1.178-1.485l-29.082-28.979-175.923-175.974c-25.384-25.353-60.436-41.031-99.149-41.031-77.49 0-140.308 62.818-140.308 140.308 0 38.777 15.73 73.88 41.158 99.275l98.152 98.049c-5.072 15.084-9.296 33.033-11.894 51.503l-0.189 1.642c-1.826 11.994-2.955 25.961-3.121 40.16l-0.002 0.186c-0.001 0.292-0.002 0.638-0.002 0.984 0 25.871 3.155 51.005 9.102 75.038l-0.448-2.14-178.688-178.483c-46.759-47.505-75.629-112.735-75.629-184.709 0-145.457 117.916-263.373 263.373-263.373 72.063 0 137.367 28.942 184.92 75.837l-0.030-0.030 204.954 204.749c47.516 47.343 76.917 112.84 76.917 185.203 0 20.969-2.469 41.361-7.131 60.902l0.358-1.779c-4.23 18.706-9.809 35.043-16.887 50.553l0.656-1.606zM947.2 882.944c-47.703 47.637-113.57 77.097-186.317 77.097s-138.613-29.46-186.32-77.1l-178.327-178.224-26.573-26.317c-47.801-47.568-77.383-113.408-77.383-186.156 0-106.604 63.522-198.372 154.78-239.518l1.656-0.668 85.709 85.658c4.526 4.559 8.593 9.585 12.118 14.997l0.222 0.363c-70.131 3.888-126.060 59.657-130.184 129.364l-0.018 0.377c-0.196 2.778-0.307 6.020-0.307 9.288 0 15.853 2.624 31.093 7.46 45.309l-0.293-0.99c6.953 20.822 18.004 38.657 32.286 53.33l-0.030-0.031c0.461 0.461 0.768 1.024 1.229 1.485l29.030 29.030 77.978 77.824 97.741 98.099c25.403 25.396 60.493 41.104 99.251 41.104 77.53 0 140.38-62.85 140.38-140.38 0-38.771-15.718-73.872-41.129-99.277l-98.151-98.048c5.081-15.091 9.305-33.041 11.896-51.515l0.187-1.631c1.834-12.002 2.964-25.97 3.122-40.171l0.002-0.175c0.002-0.404 0.003-0.883 0.003-1.362 0-25.739-3.156-50.741-9.102-74.64l0.446 2.12 178.637 178.432c47.681 47.626 77.177 113.45 77.177 186.163s-29.495 138.537-77.174 186.161l-0.003 0.003z" />
<glyph unicode="&#xcc58;" glyph-name="left-bottom-corner" d="M256 960v-768h768v-256h-1024v1024h256z" />
<glyph unicode="&#xcc59;" glyph-name="left-aligement" d="M0 806.4h1024v-102.4h-1024v102.4zM0 601.6h716.8v-102.4h-716.8v102.4zM0 396.8h1024v-102.4h-1024v102.4zM0 192h716.8v-102.4h-716.8v102.4z" />
<glyph unicode="&#xcc60;" glyph-name="italic" d="M340.838 960l4.403-55.45 105.318-17.101c11.711-1.806 22.121-6.337 30.897-12.927l-0.177 0.127c2.884-6.312 4.566-13.692 4.566-21.464 0-1.456-0.059-2.898-0.175-4.324l0.012 0.188-114.125-793.6c-3.854-21.344-21.853-37.467-43.783-38.397l-0.095-0.003-114.125-17.050-8.755-64h482.765l-4.403 55.45-105.318 17.050c-26.317 4.25-39.475 17.050-35.123 38.4l114.125 793.6c3.854 21.344 21.853 37.467 43.783 38.397l0.095 0.003 114.125 17.050 4.352 64.051h-478.362z" />
<glyph unicode="&#xcc61;" glyph-name="image" d="M307.2 652.8l256-307.2 256 153.6 102.4-307.2h-819.2zM46.541 857.6c-46.541 0-46.541-0.307-46.541-45.824v-727.859c0-45.517 0-45.517 46.541-45.517h930.816c46.643 0 46.643 0 46.643 45.517v727.859c0 45.466 0 45.466-46.541 45.517z" />
<glyph unicode="&#xcc62;" glyph-name="image-not" d="M819.2 38.4h-614.4c-110.561 6.118-198.683 94.24-204.775 204.24l-0.025 0.56v614.4h358.4l102.4-102.4h563.2v-512c-6.118-110.561-94.24-198.683-204.24-204.775l-0.56-0.025zM51.2 806.4v-563.2c2.587-83.77 69.83-151.013 153.358-153.594l0.242-0.006h614.4c83.77 2.587 151.013 69.83 153.594 153.358l0.006 0.242v460.8h-512l-102.4 102.4h-307.2zM716.8 243.2h-460.8l204.8 307.2 51.2-153.6 51.2 51.2zM409.6 294.4h204.8l-51.2 102.4-51.2-51.2-51.2 102.4zM650.24 570.88c27.336-1.185 49.050-23.634 49.050-51.155 0-28.277-22.923-51.2-51.2-51.2-28.261 0-51.174 22.897-51.2 51.152v0.002c0.625 28.415 23.808 51.21 52.314 51.21 0.364 0 0.728-0.004 1.090-0.011l-0.054 0.001z" />
<glyph unicode="&#xcc63;" glyph-name="icon" d="M873.779 811.264c-92.773 92.767-220.934 150.144-362.497 150.144-283.137 0-512.666-229.528-512.666-512.666s229.528-512.666 512.666-512.666c141.562 0 269.724 57.377 362.497 150.144v0c92.769 92.781 150.147 220.951 150.147 362.522s-57.378 269.74-150.148 362.522v0zM544.717 35.686c-10.607-0.954-22.945-1.498-35.409-1.498-218.321 0-397.655 166.927-417.332 380.112l-0.123 1.649c-0.623 8.529-0.978 18.479-0.978 28.51 0 220.303 171.268 400.604 387.92 415.019l1.257 0.067c10.638 0.96 23.011 1.507 35.511 1.507 218.297 0 397.609-166.909 417.281-380.071l0.123-1.647c0.625-8.544 0.982-18.509 0.982-28.558 0-220.322-171.298-400.635-387.976-415.023l-1.255-0.067zM647.117 312.832v0c-34.768-34.792-82.813-56.313-135.885-56.313s-101.116 21.521-135.884 56.312l-0.001 0.001c-5.852 6.155-14.101 9.983-23.244 9.983-17.701 0-32.051-14.35-32.051-32.051 0-9.143 3.828-17.392 9.969-23.231l0.014-0.013c46.384-46.346 110.443-75.010 181.197-75.010s134.813 28.663 181.199 75.011l-0.002-0.002c6.392 5.879 10.383 14.282 10.383 23.617 0 17.701-14.35 32.051-32.051 32.051-9.323 0-17.716-3.98-23.573-10.334l-0.020-0.022zM678.144 558.592c-35.337-0.087-63.949-28.753-63.949-64.102 0-35.403 28.7-64.102 64.102-64.102s64.102 28.699 64.102 64.102v0c0 0 0 0 0 0 0 35.375-28.677 64.051-64.051 64.051-0.036 0-0.072 0-0.108 0h0.006zM405.658 494.49c0 35.403-28.7 64.102-64.102 64.102s-64.102-28.7-64.102-64.102c0-35.403 28.7-64.102 64.102-64.102v0c0.015 0 0.033 0 0.051 0 35.375 0 64.051 28.677 64.051 64.051 0 0.018 0 0.036 0 0.054v-0.003z" />
<glyph unicode="&#xcc64;" glyph-name="html" d="M651.674 755.2l372.326-307.2-379.392-307.2v153.6l195.072 153.6-186.88 153.6zM372.378 755.2l-372.378-307.2 379.392-307.2v153.6l-195.072 153.6 186.88 153.6z" />
<glyph unicode="&#xcc65;" glyph-name="hor-line" d="M0 499.2h1024v-102.4h-1024v102.4z" />
<glyph unicode="&#xcc66;" glyph-name="headline" d="M799.949-64l-83.149 307.2h-409.6l-84.48-307.2h-171.52l372.326 1024h176.998l372.275-1024h-172.851zM665.6 345.6l-101.171 294.963q-10.24 27.904-28.262 87.859t-24.832 87.91c-16.665-74.943-35.161-137.716-57.276-198.754l3.516 11.106-99.174-283.085h307.2z" />
<glyph unicode="&#xcc67;" glyph-name="form" d="M345.6 960c-30.462-6.176-53.22-32.298-54.167-63.9l-0.002-0.1v-64c2.592-24.309 22.989-43.078 47.77-43.078 2.257 0 4.477 0.156 6.651 0.457l-0.252-0.029h332.8c1.922-0.273 4.143-0.428 6.4-0.428 24.781 0 45.178 18.769 47.752 42.867l0.018 0.211v64c-0.949 31.702-23.707 57.824-53.738 63.927l-0.432 0.073h-332.8zM102.4 908.8v-972.8h819.2v972.8h-153.6v-153.6c0-40.090 6.656-51.2-35.43-51.2h-441.139c-42.086 0-35.43 11.11-35.43 51.2v153.6h-153.6zM204.8 550.4h614.4v-102.4h-614.4v102.4zM204.8 243.2s-0.819 102.4 0 102.4h614.4v-102.4h-614.4zM204.8 140.8h614.4s1.536-37.99 0-102.4h-614.4v102.4z" />
<glyph unicode="&#xcc68;" glyph-name="field-move" d="M358.4 960h102.4v-102.4h-102.4v102.4zM563.2 960h102.4v-102.4h-102.4v102.4zM358.4 806.4h102.4v-102.4h-102.4v102.4zM563.2 806.4h102.4v-102.4h-102.4v102.4zM358.4 652.8h102.4v-102.4h-102.4v102.4zM563.2 652.8h102.4v-102.4h-102.4v102.4zM358.4 499.2h102.4v-102.4h-102.4v102.4zM563.2 499.2h102.4v-102.4h-102.4v102.4zM358.4 345.6h102.4v-102.4h-102.4v102.4zM563.2 345.6h102.4v-102.4h-102.4v102.4zM358.4 192h102.4v-102.4h-102.4v102.4zM563.2 192h102.4v-102.4h-102.4v102.4zM358.4 38.4h102.4v-102.4h-102.4v102.4zM563.2 38.4h102.4v-102.4h-102.4v102.4z" />
<glyph unicode="&#xcc69;" glyph-name="fevret" d="M515.482-12.8s-811.674 658.739-397.722 874.189c238.336 124.211 393.677-34.765 393.677-34.765s155.341 158.976 393.933 34.765c413.696-215.45-389.888-874.189-389.888-874.189z" />
<glyph unicode="&#xcc70;" glyph-name="elements" d="M409.6-64v409.6h-409.6s0 204.8 0 204.8h409.6v409.6h204.8v-409.6h409.6v-204.8h-409.6v-409.6h-204.8z" />
<glyph unicode="&#xcc71;" glyph-name="element-closed" d="M0.87 107.264l340.736 340.736-340.736 340.736 170.394 170.394 340.736-340.736 340.736 340.736 170.394-170.394-340.736-340.736 340.736-340.736-170.394-170.394-340.736 340.736-340.736-340.736z" />
<glyph unicode="&#xcc72;" glyph-name="edit" d="M200.243 272.64l371.046 585.318 250.112-131.533-370.842-585.318zM606.566 913.664c19.653 28.273 51.973 46.549 88.561 46.549 18.564 0 36.029-4.705 51.268-12.987l-0.565 0.281 73.37-38.707c30.208-14.495 50.694-44.84 50.694-79.97 0-17.319-4.979-33.476-13.585-47.115l0.215 0.365zM410.88 79.104l-257.28-143.104 7.168 274.432z" />
<glyph unicode="&#xcc73;" glyph-name="duplicate" d="M972.8 908.8v-614.4h-153.6v-51.2h204.8v716.8h-716.8v-204.8h51.2v153.6h614.4zM0 704h768v-768h-768v768z" />
<glyph unicode="&#xcc74;" glyph-name="dropdown-up" d="M0 89.6l523.571 717.466 500.941-715.981z" />
<glyph unicode="&#xcc75;" glyph-name="dropdown-down" d="M0 806.4l523.571-717.466 500.89 715.981z" />
<glyph unicode="&#xcc76;" glyph-name="desktop" d="M984.627 908.8h-945.254c-1.582 0.256-3.407 0.403-5.265 0.403-19.115 0-34.611-15.496-34.611-34.611 0-2.078 0.183-4.113 0.534-6.090l-0.031 0.209v-676.71h51.2v-51.2h358.4v-102.4h-51.2v-51.2h307.2v51.2h-51.2v102.4h358.4v51.2h51.2v676.71c0.374 1.899 0.587 4.082 0.587 6.316 0 18.917-15.336 34.253-34.253 34.253-2.016 0-3.991-0.174-5.912-0.508l0.205 0.029zM972.8 243.2h-921.6v614.4h921.6v-614.4z" />
<glyph unicode="&#xcc77;" glyph-name="delete" d="M870.4-64h-716.8v665.6h716.8v-665.6zM972.8 704h-921.6v153.6h307.2v102.4h307.2v-102.4h307.2v-153.6z" />
<glyph unicode="&#xcc78;" glyph-name="cross" d="M61.44 960c-0.137 0.001-0.298 0.002-0.46 0.002-33.932 0-61.44-27.508-61.44-61.44 0-16.954 6.867-32.303 17.971-43.42l407.449-407.141-407.45-407.091c-9.478-10.758-15.263-24.968-15.263-40.529 0-33.932 27.508-61.44 61.44-61.44 15.574 0 29.794 5.795 40.623 15.345l-0.067-0.058 407.347 407.091 407.347-407.091c10.762-9.493 24.982-15.287 40.556-15.287 33.932 0 61.44 27.508 61.44 61.44 0 15.561-5.785 29.771-15.322 40.597l0.058-0.068-407.347 407.091 407.347 407.091c9.601 10.791 15.467 25.091 15.467 40.76 0 33.932-27.508 61.44-61.44 61.44-15.67 0-29.969-5.866-40.822-15.522l0.062 0.054-407.347-407.091-407.347 407.091c-10.874 11.152-26.020 18.094-42.788 18.176h-0.015z" />
<glyph unicode="&#xcc79;" glyph-name="crop" d="M1024 140.8h-102.4v716.8h-716.8v102.4h-102.4v-102.4h-102.4v-102.4h102.4v-716.8h716.8v-102.4h102.4v102.4h102.4v102.4zM204.8 140.8v614.4h614.4v-614.4h-614.4z" />
<glyph unicode="&#xe112;" glyph-name="justify" d="M1024 806.4h-1024v-102.4h1024v102.4zM1024 601.6h-1024v-102.4h1024v102.4zM1024 396.8h-1024v-102.4h1024v102.4zM1024 192h-1024v-102.4h1024v102.4z" />
<glyph unicode="&#xe113;" glyph-name="color-picker" d="M853.914 405.146c-8.264-64.43-33.4-121.815-70.79-169.058l0.544 0.712 120.627-120.627c66.624 78.167 110.304 177.725 119.577 287.089l0.129 1.883h-169.984zM554.803 107.878v-171.878c111.233 9.344 210.796 52.974 289.694 120.151l-0.722-0.599-120.934 121.088c-46.549-36.295-103.844-60.948-166.387-68.647l-1.651-0.166zM302.95 178.381l-122.88-122.88c78.209-66.575 177.811-110.191 287.207-119.375l1.868-0.126v172.544c-63.615 8.533-120.212 33.473-166.912 70.383l0.717-0.546zM174.080 405.146h-174.080c9.336-111.234 52.968-210.799 120.15-289.693l-0.598 0.72 122.88 123.136c-35.787 45.99-60.225 102.479-68.173 164.134l-0.179 1.703zM242.688 656.742l-123.136 122.88c-66.558-78.133-110.186-177.64-119.424-286.942l-0.128-1.877h174.080c8.185 63.418 32.711 119.941 69.177 166.697l-0.569-0.758zM469.146 787.456v172.544c-111.254-9.366-210.831-53.013-289.746-120.203l0.722 0.6 122.88-122.88c45.967 36.383 102.54 61.354 164.382 69.744l1.762 0.196zM878.182 589.517l-37.581 37.683 150.17 150.17c18.326 19.053 29.613 44.992 29.613 73.567 0 58.646-47.542 106.189-106.189 106.189-28.588 0-54.537-11.297-73.627-29.67l0.034 0.032-150.17-150.221-37.53 37.581c-9.615 9.603-22.892 15.542-37.555 15.542s-27.94-5.939-37.556-15.542l0.001 0.001c-9.615-9.609-15.563-22.888-15.563-37.555s5.948-27.946 15.563-37.555v0l37.53-37.581-187.75-187.597c-21.816-24.159-36.098-55.495-38.927-90.074l-0.036-0.55-0.666-24.627 8.858-65.843 65.69-8.858 24.678 0.512c35.134 2.88 66.47 17.18 90.757 39.133l-0.133-0.119 187.699 187.75 37.581-37.325c9.609-9.615 22.888-15.563 37.555-15.563s27.946 5.948 37.555 15.563v0c9.582 9.596 15.507 22.845 15.507 37.478s-5.925 27.882-15.508 37.479l0.001-0.001zM540.262 401.766c-14.822-12.556-33.485-21.011-53.999-23.404l-0.478-0.045h-1.894l-42.24 42.24v1.843c2.428 21.011 10.885 39.692 23.573 54.678l-0.124-0.15 187.75 187.75 75.059-75.11z" />
<glyph unicode="&#xe114;" glyph-name="right-up" d="M1024 960h-1024l1024-1024v1024z" />
<glyph unicode="&#xe115;" glyph-name="right-down" d="M1024-64h-1024l1024 1024v-1024z" />
<glyph unicode="&#xe116;" glyph-name="left-up" d="M0 960h1024l-1024-1024v1024z" />
<glyph unicode="&#xe117;" glyph-name="left-down" d="M0-64h1024l-1024 1024v-1024z" />
<glyph unicode="&#xe118;" glyph-name="dot" d="M1024 448c0-282.77-229.23-512-512-512s-512 229.23-512 512c0 282.77 229.23 512 512 512s512-229.23 512-512z" />
<glyph unicode="&#xe119;" glyph-name="color-picker-two" d="M763.238 532.992c-34.702 0.831-62.515 29.159-62.515 63.983 0 35.346 28.654 64 64 64 35.34 0 63.99-28.644 64-63.982v-0.001c-0.431-35.44-29.262-64.004-64.763-64.004-0.254 0-0.507 0.001-0.76 0.004h0.039zM544.973 660.992c-34.702 0.831-62.515 29.159-62.515 63.983 0 35.346 28.654 64 64 64 35.34 0 63.99-28.644 64-63.982v-0.001c-0.431-35.44-29.262-64.004-64.763-64.004-0.254 0-0.507 0.001-0.76 0.004h0.039zM326.758 575.642c-34.702 0.831-62.515 29.159-62.515 63.983 0 35.346 28.654 64 64 64 35.34 0 63.99-28.644 64-63.982v-0.001c-0.431-35.44-29.262-64.004-64.763-64.004-0.254 0-0.507 0.001-0.76 0.004h0.039zM326.758 149.043c-34.702 0.831-62.515 29.159-62.515 63.983 0 35.346 28.654 64 64 64 35.34 0 63.99-28.644 64-63.982v-0.001c-0.431-35.44-29.262-64.004-64.763-64.004-0.254 0-0.507 0.001-0.76 0.004h0.039zM174.080 426.342c-0.011 0.442-0.017 0.963-0.017 1.485 0 36.166 29.319 65.485 65.485 65.485s65.485-29.319 65.485-65.485c0-36.16-29.309-65.475-65.467-65.485h-0.001c-0.214-0.003-0.468-0.004-0.721-0.004-35.502 0-64.332 28.564-64.763 63.963v0.041zM1008.179 641.382c-81.565 188.955-266.281 318.803-481.326 318.803-22.234 0-44.144-1.388-65.648-4.082l2.564 0.262c-240.048-25.775-429.738-211.862-460.824-447.928l-0.283-2.632c-2.024-17.011-3.18-36.713-3.18-56.685 0-132.305 50.69-252.771 133.709-343.036l-0.328 0.361c97.153-104.958 235.649-170.445 389.439-170.445 0.302 0 0.603 0 0.905 0.001h66.872c0.204-0.001 0.444-0.002 0.685-0.002 38.953 0 73.181 20.233 92.747 50.762l0.264 0.44c10.411 16.013 16.602 35.602 16.602 56.638 0 17.616-4.342 34.218-12.014 48.794l0.275-0.574-90.112 176.128c-1.546 2.897-2.453 6.336-2.453 9.987 0 3.327 0.754 6.478 2.1 9.291l-0.056-0.13c2.819 6.147 8.176 10.716 14.693 12.407l0.155 0.034 257.434 68.25c57.966 15.566 104.909 54.144 131.297 105.088l0.543 1.152c13.516 26.2 21.439 57.181 21.439 90.013 0 27.891-5.718 54.447-16.047 78.559l0.496-1.301z" />
<glyph unicode="&#xe120;" glyph-name="color-picker-one" d="M825.754 633.702l-285.082-581.939 483.328 345.037zM447.846 941.722v-842.138l335.514 684.851zM0-64h343.040v1024h-343.040v-1024zM171.469 197.581c0.653 0.016 1.422 0.026 2.193 0.026 51.888 0 93.952-42.064 93.952-93.952s-42.064-93.952-93.952-93.952c-0.771 0-1.54 0.009-2.307 0.028l0.114-0.002c-0.653-0.016-1.422-0.026-2.193-0.026-51.888 0-93.952 42.064-93.952 93.952s42.064 93.952 93.952 93.952c0.771 0 1.54-0.009 2.307-0.028l-0.114 0.002z" />
<glyph unicode="&#xe121;" glyph-name="play" d="M153.6-64l717.466 523.52-715.981 500.941z" />
<glyph unicode="&#xe122;" glyph-name="colon" d="M409.6 960h204.8v-204.8h-204.8v204.8zM409.6 140.8h204.8v-204.8h-204.8v204.8z" />
<glyph unicode="&#xe123;" glyph-name="webinarr" d="M143.974 733.133c17.623 0.029 31.898 14.322 31.898 31.949 0 17.645-14.304 31.949-31.949 31.949s-31.949-14.304-31.949-31.949v0c0 0 0 0 0 0 0-17.645 14.304-31.949 31.949-31.949 0.018 0 0.036 0 0.054 0h-0.003zM239.974 733.133c17.623 0.029 31.898 14.322 31.898 31.949 0 17.645-14.304 31.949-31.949 31.949s-31.949-14.304-31.949-31.949v0c0 0 0 0 0 0 0-17.645 14.304-31.949 31.949-31.949 0.018 0 0.036 0 0.054 0h-0.003zM335.974 733.133c17.623 0.029 31.898 14.322 31.898 31.949 0 17.645-14.304 31.949-31.949 31.949s-31.949-14.304-31.949-31.949v0c0 0 0 0 0 0 0-17.645 14.304-31.949 31.949-31.949 0.018 0 0.036 0 0.054 0h-0.003zM0 908.8v-921.6h1024v921.6h-1024zM216.013 52.838c5.702 92.509 46.97 174.398 110.164 232.96l0.223 0.205c7.826 7.521 18.476 12.152 30.208 12.152 9.027 0 17.413-2.742 24.372-7.438l-0.155 0.098c32.79-22.012 73.153-35.131 116.58-35.131 0.649 0 1.297 0.003 1.945 0.009l-0.099-0.001c43.996 0.684 84.822 13.677 119.352 35.675l-0.926-0.552c6.821 4.273 15.109 6.808 23.989 6.808 11.713 0 22.396-4.409 30.479-11.658l-0.043 0.038c60.819-60.111 100.544-141.448 107.143-231.979l0.069-1.185h-563.2zM332.8 466.432c-0.018 0.917-0.029 1.998-0.029 3.082 0 91.787 74.408 166.195 166.195 166.195 0.64 0 1.279-0.004 1.918-0.011l-0.097 0.001c93.143-0.451 168.475-76.061 168.475-169.267 0-93.485-75.784-169.269-169.269-169.269-0.279 0-0.558 0.001-0.837 0.002h0.043c-92.076 0.808-166.406 75.637-166.406 167.828 0 0.506 0.002 1.012 0.007 1.517l-0.001-0.077zM963.789 663.040h-903.578v184.32h903.578v-184.32z" />
<glyph unicode="&#xe124;" glyph-name="smart-video" d="M0 857.6v-819.2h1024v819.2h-1024zM341.35 667.29l410.010-219.29-410.010-219.29v438.579z" />
<glyph unicode="&#xe125;" glyph-name="popupps" d="M921.6 960h-819.2c-0.14 0.001-0.306 0.001-0.472 0.001-55.778 0-101.092-44.798-101.927-100.377l-0.001-0.079v-585.062c0.078-55.477 45.069-100.42 100.557-100.42 0.648 0 1.295 0.006 1.94 0.018l-0.097-0.001h71.68l-26.163-194.56c-0.179-1.42-0.281-3.063-0.281-4.73 0-14.673 7.913-27.497 19.704-34.439l0.187-0.102c4.68-2.791 10.321-4.442 16.348-4.442 1.239 0 2.462 0.070 3.665 0.206l-0.147-0.014c0.49-0.026 1.064-0.041 1.641-0.041 8.637 0 16.492 3.347 22.339 8.814l-0.019-0.017 281.037 229.222h429.21c0.14-0.001 0.306-0.001 0.472-0.001 55.76 0 101.063 44.769 101.927 100.323l0.001 0.081v585.165c-0.836 55.658-46.151 100.455-101.928 100.455-0.166 0-0.332 0-0.497-0.001h0.026zM738.56 414.208h-453.171c-21.098 0.785-37.903 18.078-37.903 39.296s16.805 38.511 37.832 39.294l0.071 0.002h450.97c0.031 0 0.067 0 0.103 0 21.604 0 39.117-17.513 39.117-39.117 0-0.072 0-0.144-0.001-0.216v0.011c0.032-0.581 0.051-1.262 0.051-1.946 0-20.524-16.565-37.179-37.055-37.324h-0.014zM738.56 639.078h-453.171c-21.098 0.785-37.903 18.078-37.903 39.296s16.805 38.511 37.832 39.294l0.071 0.002h450.97c0.031 0 0.067 0 0.103 0 21.604 0 39.117-17.513 39.117-39.117 0-0.054 0-0.108 0-0.162v0.008c0.034-0.597 0.053-1.295 0.053-1.998 0-20.525-16.567-37.18-37.057-37.324h-0.014z" />
<glyph unicode="&#xe126;" glyph-name="personalizationn" d="M167.117 669.286c-0.014 0.966-0.022 2.107-0.022 3.249 0 129.318 103.885 234.372 232.753 236.262l0.178 0.002c129.030-1.948 232.881-107.003 232.881-236.314 0-1.161-0.008-2.32-0.025-3.477l0.002 0.175c0.015-0.982 0.023-2.141 0.023-3.302 0-129.31-103.85-234.365-232.697-236.312l-0.183-0.002c-129.048 1.89-232.934 106.945-232.934 236.264 0 1.215 0.009 2.427 0.027 3.637l-0.002-0.183zM418.918 394.24h-37.837c-0.418 0.002-0.912 0.003-1.407 0.003-208.191 0-377.247-167.556-379.673-375.172l-0.002-0.229c-0.009-0.277-0.014-0.603-0.014-0.93 0-16.719 13.356-30.319 29.981-30.711l0.036-0.001h739.994c16.684 0.364 30.070 13.975 30.070 30.713 0 0.345-0.006 0.688-0.017 1.029l0.001-0.050c-2.457 207.823-171.501 375.35-379.674 375.35-0.513 0-1.025-0.001-1.538-0.003h0.079zM945.818 462.541l0.819 1.792 69.427 17.152c5.043 19.278 7.938 41.41 7.938 64.219 0 0.373-0.001 0.746-0.002 1.119v-0.057c0 2.714 0 5.427 0 8.141l-64.358 31.846-0.41 1.894c-2.179 9.298-4.552 17.046-7.366 24.579l0.454-1.386-0.666 1.843 37.325 62.618c-12.766 21.963-27.711 40.854-44.961 57.356l-0.095 0.090-67.43-24.32-1.638 1.075c-5.725 3.822-12.43 7.704-19.377 11.175l-1.103 0.499-1.741 0.819-16.64 71.68c-18.582 5.073-39.918 7.987-61.935 7.987-0.006 0-0.012 0-0.018 0h-1.535c-2.662 0-5.12 0-7.885 0l-30.72-66.202-1.843-0.461c-9.016-2.111-16.574-4.449-23.911-7.237l1.281 0.427-1.792-0.666-12.595 7.936c4.545-20.065 7.173-43.121 7.219-66.783v-0.033c-0.162-17.244-1.664-34.012-4.407-50.359l0.26 1.873c19.219 21.176 46.802 34.463 77.49 34.611h0.027c1.072 0.037 2.331 0.059 3.596 0.059 60.909 0 110.285-49.376 110.285-110.285s-49.376-110.285-110.285-110.285c-55.651 0-101.675 41.22-109.206 94.795l-0.067 0.583c-19.436-39.437-45.449-72.749-76.954-99.855l-0.409-0.344c74.586-31.778 136.747-80.281 183.853-141.042l0.774-1.038h6.451l30.72 66.202 1.843 0.461c9.041 2.132 16.615 4.487 23.967 7.291l-1.285-0.431 1.792 0.666 60.826-38.4c21.361 13.2 39.734 28.56 55.665 46.169l0.194 0.218-23.654 69.376 1.024 1.69c3.579 5.755 7.27 12.622 10.552 19.718l0.508 1.223z" />
<glyph unicode="&#xe127;" glyph-name="libraryy" d="M-0.41-13.158l0.41 263.68h273.050v-263.322zM341.35-12.8v263.322h341.35v-263.322h-341.35zM0 316.365v263.322h273.050v-263.322h-273.050zM341.35 316.365v263.322h341.35v-263.322h-341.35zM750.95 316.365v263.322h273.050v-263.322h-273.050zM0 645.478l-0.41 263.629 273.459-0.307v-263.322h-273.050zM341.35 645.478v263.322h341.35v-263.322h-341.35zM750.95 645.478v263.322l273.357 0.256-0.307-263.578h-273.050zM750.95-12.8l-0.41 263.578 273.459-0.256v-263.322h-273.050z" />
<glyph unicode="&#xe128;" glyph-name="crmm" d="M975.77 541.389s-0.87 0.256-61.030 10.24c-34.909 0.351-63.072 28.731-63.072 63.69 0 17.346 6.934 33.072 18.181 44.558l-0.011-0.011 35.84 50.33c6.326 9.319 10.099 20.815 10.099 33.193 0 15.846-6.184 30.247-16.27 40.922l0.027-0.029-51.661 51.712c-10.647 9.963-25 16.082-40.782 16.082-12.421 0-23.956-3.79-33.513-10.276l0.209 0.134s-0.717-0.256-50.278-35.84c-11.459-11.313-27.211-18.3-44.596-18.3-34.945 0-63.296 28.233-63.487 63.133v0.018l-10.24 60.979c-5.553 26.951-28.627 47.085-56.575 48.074l-0.104 0.003h-73.216c-28.065-0.987-51.155-21.119-56.662-47.688l-0.067-0.388s0-0.922-10.24-61.184c-0.265-34.833-28.565-62.968-63.435-62.968-17.389 0-33.144 6.996-44.603 18.328l0.006-0.006-50.278 36.147c-9.344 6.386-20.889 10.198-33.323 10.198-15.811 0-30.182-6.162-40.844-16.216l0.029 0.028-51.661-52.122c-10.106-10.642-16.322-25.063-16.322-40.935 0-12.385 3.784-23.886 10.259-33.409l-0.133 0.207s0.358-0.358 35.84-50.33c11.278-11.475 18.24-27.224 18.24-44.598 0-34.937-28.152-63.299-63.008-63.639h-0.032l-60.979-10.24c-26.896-5.519-47.007-28.5-48.073-56.362l-0.003-0.111v-73.318c0.85-28.089 21.028-51.227 47.644-56.614l0.382-0.065s0.87 0 61.030-10.24c34.957-0.215 63.212-28.602 63.212-63.589 0-17.403-6.991-33.172-18.317-44.655l0.007 0.007-35.84-50.33c-6.342-9.317-10.126-20.818-10.126-33.202 0-15.873 6.216-30.293 16.346-40.961l-0.024 0.026 51.712-51.917c10.664-9.939 25.018-16.040 40.798-16.040 12.41 0 23.938 3.774 33.501 10.236l-0.212-0.135s0.307 0.512 50.278 35.84c11.453 11.326 27.208 18.322 44.597 18.322 34.871 0 63.17-28.135 63.435-62.943v-0.025l10.24-61.184c5.45-26.942 28.543-47.074 56.487-47.921l0.089-0.002h73.267c28.073 0.934 51.177 21.096 56.613 47.692l0.066 0.385s0 0.819 10.24 61.184c0.369 34.866 28.72 62.988 63.638 62.988 17.425 0 33.215-7.003 44.708-18.348l-0.007 0.007 50.278-35.84c9.336-6.31 20.845-10.073 33.232-10.073 15.785 0 30.144 6.111 40.838 16.096l-0.035-0.032 51.968 51.866c10.042 10.643 16.213 25.031 16.213 40.862 0 12.391-3.782 23.9-10.254 33.433l0.133-0.208s0 0.614-35.84 50.381c-11.278 11.475-18.24 27.223-18.24 44.598 0 34.955 28.18 63.328 63.062 63.639h0.029l61.030 10.24c26.988 5.332 47.161 28.505 47.82 56.506l0.001 0.070v73.267c-0.812 28.167-21.116 51.364-47.854 56.617l-0.376 0.062zM289.434 271.718l-92.16 28.211v313.6l178.125-95.59c-48.513-69.070-79.779-153.462-85.886-244.743l-0.079-1.478zM675.021 320.102c-5.457-6.518-13.597-10.634-22.698-10.634-6.449 0-12.416 2.066-17.273 5.573l0.087-0.060-4.198-5.12c32.717-28.723-5.12-62.566-33.126-37.632l-2.867-3.738c7.362-6.239 12.003-15.492 12.003-25.829 0-6.399-1.779-12.382-4.868-17.483l0.085 0.151c-5.424-3.637-12.098-5.805-19.28-5.805-8.224 0-15.784 2.843-21.751 7.6l0.071-0.054-2.867-3.482c8.626-5.767 14.229-15.466 14.229-26.475 0-5.656-1.479-10.966-4.072-15.566l0.082 0.159c-5.56-3.485-12.318-5.553-19.558-5.553s-13.998 2.067-19.715 5.644l0.156-0.091c-42.911 20.351-79.467 41.841-113.919 66.119l2.405-1.607c-26.419 17.459-68.864 42.189-90.266 55.142 9.178 65.15 30.848 123.768 62.574 175.558l-1.134-1.99 42.394-8.448c-7.268-13.169-14.412-28.857-20.402-45.102l-0.795-2.463c-1.485-3.686-4.506-12.902-4.864-13.978-1.336-4.041-2.107-8.692-2.107-13.523 0-19.775 12.916-36.534 30.772-42.3l0.315-0.088c70.451-24.115 104.858 86.426 104.858 86.426 20.281-7.479 37.679-18.372 52.359-32.129l-0.084 0.078c29.030-24.115 46.49-67.891 84.429-80.435h0.717c-0.464-1.134-1.014-2.112-1.667-3.010l0.028 0.041zM732.416 399.77c-12.228-19.419-26.049-36.219-41.716-51.092l-0.114-0.108c-18.381-1.741-45.107 40.96-69.325 65.741-23.467 24.997-54.414 42.72-89.259 49.592l-1.058 0.174c-8.65-0.602-15.654-6.96-17.236-15.242l-0.019-0.118c-7.932-32.518-29.129-58.994-57.391-73.841l-0.619-0.296c-1.656-0.482-3.558-0.759-5.525-0.759-9.876 0-18.12 6.991-20.052 16.294l-0.023 0.133c9.975 27.93 20.68 51.478 33.057 73.977l-1.313-2.604c14.37 29.879 38.63 53.095 68.452 65.769l0.873 0.33c12.846 4.298 27.637 6.778 43.008 6.778s30.162-2.48 43.996-7.062l-0.988 0.283c0.75-0.456 1.657-0.725 2.627-0.725 0.375 0 0.741 0.040 1.093 0.117l-0.034-0.006c7.825 5.568 14.567 11.952 20.327 19.156l0.153 0.198c42.353-37.055 77.773-80.735 104.934-129.634l1.255-2.462c-4.557-4.864-15.053-14.592-15.053-14.592zM826.419 426.701l-40.96-10.24c-30.516 64.998-73.844 119.392-127.099 161.866l-0.901 0.694 169.216 141.517v-293.786z" />
<glyph unicode="&#xe129;" glyph-name="autoresponderrr" d="M568.883 367.565v-54.835h284.467v383.334c-0.029 60.925-49.411 110.307-110.333 110.336h-632.579c-0.046 0-0.1 0-0.154 0-60.909 0-110.285-49.376-110.285-110.285 0-0.018 0-0.036 0-0.054v0.003-483.226c0.784-63.644 50.486-115.431 113.2-119.533l0.361-0.019h284.672l-56.883 109.67zM103.424 559.667v74.342l323.328-152.883 323.123 152.883v-74.342l-323.123-152.627zM1024 310.374l-0.41 1.997-113.306 0.307v-109.722h-341.402v54.886l-113.766-109.722 113.766-109.722v54.835h455.117z" />
<glyph unicode="&#xe130;" glyph-name="preview-two" d="M512 755.2c-204.8 0-388.147-119.245-512-307.2 123.853-187.597 307.2-307.2 512-307.2s387.994 119.501 511.642 307.2c-123.75 187.955-306.842 307.2-511.642 307.2zM512 272.538c-74.445 0-134.81 78.541-134.81 175.565s60.211 175.565 134.81 175.565 134.707-78.387 134.707-175.667-60.365-175.36-134.707-175.36z" />
<glyph unicode="&#xe131;" glyph-name="saglus-icon" d="M516.147 960h-413.747v-1024l222.669 223.232h188.979c1.174-0.012 2.56-0.019 3.948-0.019 222.14 0 402.365 179.46 403.603 401.309l0.001 0.118c-1.908 220.973-181.483 399.369-402.725 399.369-0.959 0-1.917-0.003-2.874-0.010l0.147 0.001zM289.331 648.704c0.544 39.736 32.884 71.739 72.698 71.739 1.029 0 2.052-0.021 3.070-0.064l-0.146 0.005c0.261 0.003 0.57 0.005 0.879 0.005 40.097 0 72.602-32.505 72.602-72.602 0-0.398-0.003-0.795-0.010-1.192l0.001 0.060c-1.030-39.805-33.542-71.68-73.5-71.68-0.008 0-0.016 0-0.024 0h0.001c-1.172-0.068-2.543-0.107-3.924-0.107-39.588 0-71.68 32.092-71.68 71.68 0 0.758 0.012 1.513 0.035 2.266l-0.003-0.11zM501.453 368.128h-4.198c-1.244-0.027-2.711-0.042-4.181-0.042-65.288 0-123.515 30.233-161.444 77.462l-0.314 0.404 37.837 24.576c29.332-36.373 73.892-59.446 123.842-59.446 1.462 0 2.92 0.020 4.372 0.059l-0.214-0.005c3.93-0.331 8.505-0.52 13.125-0.52 51.198 0 96.979 23.194 127.409 59.647l0.215 0.265 37.939-26.624c-40.897-46.622-100.591-75.895-167.123-75.895-2.555 0-5.099 0.043-7.633 0.129l0.368-0.010zM688.384 628.224h-144.896v40.96h142.592v-40.96h2.099z" />
<glyph unicode="&#xe132;" glyph-name="gallery" d="M0 960v-1024h1024v1024h-1024zM921.6 857.6v-512l-268.339-101.734s-275.968 322.56-363.52 322.56c-74.148-12.35-138.522-47.488-187.252-97.854l-0.089-0.092v389.12h819.2zM538.931 601.19c0 72.898 59.096 131.993 131.994 131.993s131.994-59.096 131.994-131.994c0-72.898-59.096-131.994-131.994-131.994-0.072 0-0.144 0-0.216 0h0.011c-72.81 0.117-131.789 59.167-131.789 131.993 0 0 0 0 0 0v0z" />
<glyph unicode="&#xe133;" glyph-name="warning" d="M477.338 400.128h70.502l14.746 201.011h-99.994zM512.307 364.8c-1.265 0.084-2.743 0.133-4.232 0.133-12.365 0-23.955-3.318-33.928-9.112l0.323 0.173c-7.921-5.944-12.991-15.316-12.991-25.871 0-10.689 5.2-20.165 13.208-26.034l0.090-0.063c9.633-5.858 21.28-9.326 33.737-9.326 1.334 0 2.659 0.040 3.973 0.118l-0.181-0.009c1.054-0.063 2.288-0.098 3.529-0.098 12.382 0 23.936 3.544 33.702 9.674l-0.265-0.155c8.047 5.832 13.221 15.201 13.221 25.779s-5.174 19.947-13.129 25.716l-0.092 0.064c-9.53 5.726-21.031 9.113-33.323 9.113-1.282 0-2.555-0.037-3.818-0.109l0.175 0.008zM512 959.334c-282.38-0.029-511.283-228.95-511.283-511.334 0-282.402 228.932-511.334 511.334-511.334s511.334 228.932 511.334 511.334v0c-0.029 282.408-228.973 511.334-511.386 511.334v0zM783.36 235.622h-542.72c-10.688 11.093-17.273 26.205-17.273 42.854s6.584 31.761 17.291 42.874l-0.018-0.019 229.632 387.328c10.561 10.912 25.341 17.686 41.702 17.686s31.141-6.774 41.687-17.67l0.015-0.016 229.683-387.277c10.688-11.093 17.273-26.205 17.273-42.854s-6.584-31.761-17.291-42.874l0.018 0.019z" />
<glyph unicode="&#xe134;" glyph-name="warning-two" d="M993.28 147.763l-407.962 728.781c-18.255 20.54-44.743 33.417-74.24 33.417s-55.986-12.877-74.152-33.316l-0.088-0.101-407.501-728.781c-19.071-21.328-30.729-49.635-30.729-80.666s11.657-59.338 30.832-80.783l-0.103 0.117h963.942c19.061 21.332 30.711 49.638 30.711 80.666s-11.65 59.334-30.815 80.784l0.104-0.118zM558.080 146.483c-13.425-8.975-29.937-14.323-47.697-14.323-1.737 0-3.461 0.051-5.172 0.152l0.236-0.011c-1.678-0.112-3.637-0.176-5.612-0.176-17.704 0-34.207 5.141-48.099 14.010l0.36-0.215c-11.562 9.301-18.898 23.448-18.898 39.308 0 15.675 7.166 29.677 18.401 38.907l0.088 0.070c13.674 8.475 30.259 13.498 48.018 13.498 2.056 0 4.097-0.067 6.12-0.2l-0.275 0.014c1.584 0.1 3.435 0.158 5.299 0.158 17.629 0 34.063-5.114 47.899-13.94l-0.36 0.215c11.333-9.159 18.519-23.058 18.519-38.636 0-15.716-7.315-29.723-18.726-38.803l-0.101-0.078zM556.032 291.072h-100.352l-20.89 302.95h142.234z" />
<glyph unicode="&#xe135;" glyph-name="tick" d="M389.12 322.662l-258.253 235.52-130.867-154.675 401.203-365.107 622.797 677.222-143.36 141.978z" />
<glyph unicode="&#xe136;" glyph-name="oh-snap" d="M512 959.386c-282.43 0-511.386-228.955-511.386-511.386s228.955-511.386 511.386-511.386c282.43 0 511.386 228.955 511.386 511.386v0c0 282.43-228.955 511.386-511.386 511.386v0zM512 160.358c-158.86 0-287.642 128.782-287.642 287.642s128.782 287.642 287.642 287.642c158.86 0 287.642-128.782 287.642-287.642v0c0-158.86-128.782-287.642-287.642-287.642v0zM512.307 364.749c-1.278 0.087-2.77 0.136-4.274 0.136-12.358 0-23.935-3.339-33.88-9.165l0.317 0.171c-7.921-5.944-12.991-15.316-12.991-25.871 0-10.689 5.2-20.165 13.208-26.034l0.090-0.063c9.587-5.771 21.159-9.184 33.528-9.184 1.408 0 2.805 0.044 4.191 0.131l-0.19-0.010c1.096-0.067 2.377-0.106 3.668-0.106 12.323 0 23.827 3.508 33.567 9.58l-0.269-0.156c8.047 5.822 13.222 15.183 13.222 25.754s-5.175 19.932-13.129 25.69l-0.092 0.064c-9.497 5.76-20.975 9.169-33.249 9.169-1.308 0-2.606-0.039-3.895-0.115l0.178 0.008zM477.338 400.077h70.502l14.694 201.011h-99.942z" />
<glyph unicode="&#xe137;" glyph-name="oh-snap-two" d="M512 959.642c-282.77 0-512-229.23-512-512s229.23-512 512-512c282.77 0 512 229.23 512 512 0 0.126 0 0.252 0 0.378v-0.020c-0.204 282.616-229.356 511.642-512 511.642v0zM578.56 192c-16.856-10.532-37.329-16.778-59.261-16.778-2.297 0-4.579 0.069-6.842 0.204l0.312-0.015c-2.12-0.137-4.596-0.215-7.090-0.215-22.039 0-42.654 6.094-60.253 16.689l0.527-0.294c-14.459 10.542-23.748 27.422-23.748 46.472 0 18.827 9.073 35.535 23.085 45.99l0.151 0.108c17.113 10.038 37.687 15.966 59.646 15.966 2.703 0 5.385-0.090 8.043-0.267l-0.361 0.019c2.087 0.134 4.525 0.211 6.981 0.211 21.799 0 42.187-6.036 59.587-16.527l-0.519 0.291c14.356-10.34 23.593-27.009 23.593-45.836 0-18.937-9.346-35.69-23.677-45.901l-0.172-0.117zM576 362.598h-125.44l-26.266 357.632h177.818z" />
<glyph unicode="&#xe138;" glyph-name="heads-up" d="M512 959.386c-282.43 0-511.386-228.955-511.386-511.386s228.955-511.386 511.386-511.386c282.43 0 511.386 228.955 511.386 511.386v0c0 0.015 0 0.033 0 0.051 0 282.402-228.932 511.334-511.334 511.334-0.018 0-0.036 0-0.055 0h0.003zM516.045 176.384c-31.161 0.261-56.32 25.582-56.32 56.779 0 0.073 0 0.145 0 0.218v-0.011c0 1.331 0 2.406 0 3.686 18.074 0 36.915 0 56.32 0s38.246 0 56.32 0c0-1.229 0-2.355 0-3.686 0-0.077 0.001-0.167 0.001-0.258 0-31.197-25.16-56.518-56.296-56.779h-0.025zM512 283.136c-132.352 0-239.718-4.762-239.718 50.022 0 34.611 32.461 50.893 59.955 83.251-8.699 4.315-14.573 13.136-14.573 23.328 0 0.457 0.012 0.911 0.035 1.362l-0.003-0.063c-0.061 0.64-0.095 1.383-0.095 2.134 0 12.358 9.335 22.535 21.337 23.865l0.108 0.010h13.107c1.178 23.654 0.358 52.070 0.358 52.070 0 0.125-0.001 0.273-0.001 0.421 0 75.661 50.544 139.517 119.709 159.645l1.175 0.293c-1.167 3.039-1.859 6.553-1.894 10.225v0.015c0 0.046 0 0.1 0 0.154 0 16.29 13.162 29.506 29.432 29.593h22.075c16.278-0.087 29.44-13.303 29.44-29.593 0-0.054 0-0.108 0-0.162v0.008c-0.036-3.687-0.727-7.201-1.964-10.447l0.069 0.207c70.34-20.421 120.884-84.277 120.884-159.938 0-0.13 0-0.26 0-0.389v0.020s-0.87-28.416 0.358-52.070h13.107c12.111-1.34 21.445-11.518 21.445-23.875 0-0.751-0.035-1.495-0.102-2.229l0.007 0.094c0.021-0.388 0.033-0.842 0.033-1.299 0-10.193-5.874-19.013-14.422-23.261l-0.151-0.068c27.494-32.358 59.955-48.64 59.955-83.251 0.051-54.835-107.264-50.074-239.667-50.074z" />
<glyph unicode="&#xe139;" glyph-name="heads-up-two" d="M520.346-64.358c-0.122 0-0.267-0.001-0.411-0.001-59.495 0-107.763 48.070-108.082 107.49v0.030c0 2.458 0 4.557 0 6.912 34.714 0 70.963 0.358 108.237 0.358s73.523-0.358 108.288-0.358c0-2.355 0-4.454 0-6.912-0.32-59.433-48.559-107.492-108.029-107.52h-0.003zM512.563 137.062c-254.464 0-460.8-9.011-460.8 94.31 0 65.229 62.464 95.949 115.302 156.979-16.716 7.982-28.059 24.751-28.059 44.169 0 0.798 0.019 1.592 0.057 2.381l-0.004-0.111c-0.096 1.108-0.15 2.398-0.15 3.7 0 23.597 17.936 43.004 40.918 45.334l0.192 0.016h25.19c2.304 44.595 0.666 98.202 0.666 98.202 0.693 143.893 97.937 264.885 230.238 301.557l2.21 0.523c-2.307 5.899-3.643 12.729-3.643 19.872 0 30.935 25.078 56.013 56.013 56.013 0.291 0 0.581-0.002 0.871-0.007l-0.044 0.001h42.496c0.173 0.002 0.378 0.003 0.583 0.003 30.935 0 56.013-25.078 56.013-56.013 0-7.103-1.322-13.897-3.733-20.149l0.13 0.383c134.435-37.298 231.58-158.312 232.192-302.112v-0.070s-1.638-53.606 0.666-98.202h25.19c23.175-2.345 41.11-21.753 41.11-45.349 0-1.302-0.055-2.592-0.162-3.867l0.011 0.167c0.033-0.668 0.051-1.451 0.051-2.238 0-19.427-11.341-36.205-27.764-44.074l-0.294-0.127c52.838-61.030 115.251-91.75 115.251-156.979 0.102-103.322-206.234-94.31-460.698-94.31z" />
<glyph unicode="&#xe140;" glyph-name="twitterr" d="M1022.669 799.232c-35.033-17.537-75.715-30.388-118.596-36.37l-2.082-0.238c44.188 30.561 76.837 75.074 91.759 127.082l0.401 1.635c-38.287-25.139-82.96-44.479-130.83-55.432l-2.751-0.53c-36.699 44.704-91.77 73.159-153.504 73.727l-0.096 0.001c-117.391-6.646-210.069-103.462-210.069-221.925 0-3.719 0.091-7.417 0.272-11.092l-0.020 0.517c0-0.018 0-0.039 0-0.060 0-18.776 1.976-37.091 5.732-54.748l-0.305 1.714c-179.086 12.281-334.416 104.333-432.069 240.54l-1.185 1.738c-17.873-33.298-28.374-72.855-28.374-114.863 0-0.748 0.003-1.496 0.010-2.243l-0.001 0.114c-0.017-1.061-0.026-2.313-0.026-3.567 0-77.118 36.361-145.743 92.873-189.667l0.542-0.405c-35.425 1.379-68.096 12.042-95.985 29.605l0.804-0.473v-2.918c-0.089-2.373-0.139-5.161-0.139-7.961 0-104.862 70.761-193.197 167.138-219.86l1.603-0.378c-16.501-5.119-35.472-8.067-55.131-8.067-13.946 0-27.545 1.484-40.649 4.302l1.265-0.228c23.533-89.989 101.702-156.225 196.149-161.511l0.561-0.025c-69.112-61.342-160.463-98.987-260.597-99.532h-0.113c-17.645 0.029-34.991 1.181-52.005 3.39l2.034-0.216c89.597-64.941 201.627-104.030 322.766-104.448h0.101c386.816 0 598.067 354.406 598.067 661.197 0 9.882 0 19.866-0.666 29.747 41.667 33.597 76.637 73.458 103.981 118.466l1.133 2.008z" />
<glyph unicode="&#xe141;" glyph-name="pintrestt" d="M291.84 367.053c47.923 87.45-15.36 106.547-25.139 170.035-40.499 259.072 288.819 436.019 461.261 254.976 119.347-125.389 40.96-510.874-151.654-470.733-184.32 38.246 90.266 345.088-56.832 405.35-119.501 48.998-182.989-149.76-126.31-248.525-33.28-169.83-104.806-329.779-75.878-542.72 93.952 70.554 125.696 205.67 151.654 346.573 47.258-29.747 72.499-60.57 132.71-65.382 222.106-17.818 346.214 229.427 315.802 457.677-26.931 202.291-221.798 305.306-429.619 281.19-182.101-21.15-323.709-169.063-334.898-352.217l-0.052-1.063c-4.147-119.808 28.774-209.869 138.957-235.162z" />
<glyph unicode="&#xe142;" glyph-name="linkedinn" d="M1024.717 332.032v-396.698h-219.802v370.176c0 92.979-31.795 156.467-111.36 156.467-52.605-1.151-96.839-35.719-112.398-83.266l-0.242-0.855c-4.719-14.611-7.44-31.42-7.44-48.865 0-2.622 0.061-5.229 0.183-7.821l-0.014 0.367v-386.406h-219.955s2.97 627.098 0 692.070h219.75v-98.099c-0.461-0.717-1.024-1.536-1.434-2.253h1.434v2.253c37.353 68.638 108.94 114.44 191.225 114.44 2.433 0 4.857-0.040 7.27-0.12l-0.352 0.009c144.896 0 253.133-98.867 253.133-311.398zM123.699 960.717c-2.214 0.149-4.8 0.234-7.405 0.234-64.641 0-117.043-52.402-117.043-117.043 0-0.965 0.012-1.927 0.035-2.886l-0.003 0.142c-0.032-1.011-0.050-2.201-0.050-3.394 0-64.245 52.081-116.326 116.326-116.326 1.836 0 3.662 0.043 5.478 0.127l-0.257-0.009h1.485c2.184-0.145 4.734-0.228 7.304-0.228 64.641 0 117.043 52.402 117.043 117.043 0 0.98-0.012 1.958-0.036 2.933l0.003-0.144c0.027 0.936 0.042 2.037 0.042 3.142 0 64.387-52.196 116.582-116.582 116.582-2.23 0-4.446-0.063-6.645-0.186l0.305 0.014zM12.339-64.666h219.802v691.866h-219.802v-691.866z" />
<glyph unicode="&#xe143;" glyph-name="instagramm" d="M704.256 960.717h-384.512c-176.986 0-320.461-143.475-320.461-320.461v0-384.512c0-176.986 143.475-320.461 320.461-320.461v0h384.512c176.968 0 320.431 143.446 320.461 320.407v384.566c0 176.986-143.475 320.461-320.461 320.461v0zM928.563 255.744c-0.146-123.823-100.484-224.162-224.293-224.307h-384.526c-123.823 0.146-224.162 100.484-224.307 224.293v384.526c0.146 123.823 100.484 224.162 224.293 224.307h384.526c123.823-0.146 224.162-100.484 224.307-224.293v-384.526zM512 704.358c-141.583 0-256.358-114.776-256.358-256.358s114.776-256.358 256.358-256.358c141.583 0 256.358 114.776 256.358 256.358v0c0 141.583-114.776 256.358-256.358 256.358v0zM512 287.795c-88.479 0-160.205 71.726-160.205 160.205s71.726 160.205 160.205 160.205c88.479 0 160.205-71.726 160.205-160.205v0c-0.145-88.42-71.785-160.059-160.191-160.205h-0.014zM787.558 757.76c18.861 0 34.15-15.29 34.15-34.15s-15.29-34.15-34.15-34.15c-18.861 0-34.15 15.29-34.15 34.15v0c0.029 18.839 15.308 34.099 34.15 34.099 0 0 0 0 0 0v0z" />
<glyph unicode="&#xe144;" glyph-name="g-pluss" d="M342.323 498.79v-122.88h194.56c-16.136-88.566-92.686-154.831-184.713-154.831-3.464 0-6.905 0.094-10.323 0.279l0.476-0.021c-118.281 4.208-212.569 101.107-212.569 220.029 0 2.206 0.032 4.405 0.097 6.596l-0.007-0.321c-0.062 1.942-0.097 4.225-0.097 6.517 0 118.87 94.361 215.701 212.264 219.675l0.364 0.010c0.966 0.018 2.105 0.028 3.247 0.028 52.133 0 99.333-21.121 133.509-55.274l-0.001 0.001 93.133 93.542c-58.057 57.876-138.166 93.66-226.632 93.66-1.109 0-2.216-0.006-3.322-0.017l0.169 0.001c-190.384-4.171-343.124-159.492-343.124-350.487 0-2.692 0.030-5.377 0.091-8.055l-0.007 0.399c-0.054-2.296-0.085-5-0.085-7.712 0-191.037 152.717-346.405 342.727-350.681l0.398-0.007c198.093 0 329.318 145.357 329.318 350.054-0.059 21.013-2.013 41.53-5.699 61.439l0.323-2.098h-324.096zM1023.488 529.92h-107.776v110.336h-107.827v-110.336h-107.776v-110.234h107.776v-109.926h107.776v110.029h107.827z" />
<glyph unicode="&#xe145;" glyph-name="facebookk" d="M798.362 960.512h-135.27c-4.566 0.316-9.896 0.495-15.267 0.495-130.074 0-235.52-105.446-235.52-235.52 0-6.030 0.227-12.007 0.672-17.923l-0.048 0.788v-116.326h-136.038c-0.046 0-0.1 0.001-0.154 0.001-11.596 0-21.007-9.357-21.094-20.933v-168.61c0.116-11.562 9.515-20.89 21.093-20.89 0.054 0 0.109 0 0.163 0.001h135.979v-425.37c0.116-11.562 9.515-20.89 21.093-20.89 0.054 0 0.109 0 0.163 0.001h177.451c0.046 0 0.1-0.001 0.155-0.001 11.578 0 20.978 9.328 21.093 20.879v425.227h159.027c0.046 0 0.1-0.001 0.155-0.001 11.578 0 20.978 9.328 21.093 20.879v168.561c-0.011 5.798-2.399 11.036-6.242 14.793l-0.004 0.004c-3.868 3.799-9.174 6.144-15.029 6.144-0.008 0-0.017 0-0.025 0h-158.923v98.816c0 47.411 11.469 71.68 74.291 71.68h91.136c0.046 0 0.1-0.001 0.155-0.001 11.578 0 20.978 9.328 21.093 20.879v156.325c-0.058 11.606-9.48 20.992-21.094 20.992-0.036 0-0.072 0-0.108 0h0.006z" />
<glyph unicode="&#xe146;" glyph-name="dott" d="M1024 448c0-282.77-229.23-512-512-512s-512 229.23-512 512c0 282.77 229.23 512 512 512s512-229.23 512-512z" />
<glyph unicode="&#xe147;" glyph-name="your-creation" d="M0 960v-1024h1024v1024h-1024zM707.379 449.587l-190.259 197.325 56.934 58.778c16.346 16.7 39.117 27.053 64.307 27.053s47.961-10.353 64.292-27.037l0.016-0.016 65.331-68.25c15.495-16.253 25.029-38.309 25.029-62.592s-9.534-46.339-25.064-62.628l0.034 0.036zM489.472 223.59l-190.464 197.376 189.030 195.994 190.464-197.325zM221.594 223.181l50.381 165.734 186.368-193.075-160.768-52.634c-5.196-1.722-11.178-2.731-17.391-2.765h-0.017c-17.124 0.146-32.555 7.274-43.607 18.672l-0.015 0.016c-11.058 11.648-17.86 27.431-17.86 44.803 0 6.87 1.064 13.492 3.036 19.709l-0.126-0.461z" />
<glyph unicode="&#xe148;" glyph-name="create-your-own" d="M554.496 937.83c0-12.442 1.28-36.147 0-48.589-0.092-0.503-0.145-1.082-0.145-1.673 0-4.699 3.332-8.62 7.762-9.529l0.063-0.011c44.73-18.113 76.752-58.99 81.872-107.875l0.048-0.566c0.493-4.152 0.774-8.962 0.774-13.837 0-30.408-10.936-58.262-29.089-79.843l0.155 0.189c-3.676-3.128-5.993-7.759-5.993-12.931 0-3.036 0.798-5.885 2.196-8.35l-0.044 0.084c35.84-94.72 71.68-139.418 107.52-234.138 1.428-5.9 6.663-10.213 12.906-10.213 0.868 0 1.716 0.083 2.538 0.243l-0.083-0.013h88.371c1.125 0.106 2.433 0.167 3.755 0.167 22.958 0 41.648-18.271 42.323-41.065l0.001-0.062c0.007-0.307 0.012-0.668 0.012-1.030 0-24.912-20.195-45.107-45.107-45.107-0.797 0-1.588 0.021-2.375 0.061l0.11-0.005h-65.229c1.012-5.169 2.789-9.767 5.232-13.928l-0.112 0.207c35.84-92.16 70.451-136.96 106.291-230.4 1.358-3.136 2.148-6.787 2.148-10.623 0-2.429-0.317-4.784-0.911-7.026l0.043 0.191c-12.8-40.96-25.6-80.998-40.96-125.901-2.56 7.475-113.971 239.155-166.502 376.218-1.835 6.577-7.773 11.321-14.819 11.321-0.642 0-1.274-0.039-1.895-0.116l0.074 0.007c-29.44-1.229-57.651 0-88.371 0v-17.459c0.109-1.144 0.171-2.473 0.171-3.816 0-19.376-12.905-35.738-30.589-40.959l-0.302-0.076c-4.438-1.669-9.567-2.635-14.922-2.635-21.046 0-38.607 14.922-42.681 34.763l-0.048 0.281c-1.828 7.467-2.877 16.038-2.877 24.855 0 1.739 0.041 3.468 0.121 5.186l-0.009-0.243h-87.040c-0.547 0.069-1.179 0.108-1.821 0.108-7.046 0-12.984-4.744-14.794-11.213l-0.026-0.108c-52.531-135.834-163.84-368.64-166.502-374.989-2.56 5.12-29.44 86.016-40.96 123.392-0.554 2.347-0.871 5.041-0.871 7.81 0 4.363 0.789 8.543 2.232 12.403l-0.080-0.245c34.56 93.491 70.451 136.96 105.011 230.4 1.28 3.738 2.56 7.475 3.84 12.442h-65.229c-0.738-0.044-1.602-0.070-2.471-0.070-22.832 0-41.581 17.479-43.597 39.785l-0.012 0.169c-0.073 0.938-0.114 2.031-0.114 3.134 0 23.837 19.324 43.162 43.162 43.162 1.519 0 3.019-0.078 4.497-0.231l-0.185 0.016h83.302c0.919-0.153 1.978-0.241 3.057-0.241 8.797 0 16.234 5.823 18.667 13.825l0.036 0.138c34.56 93.491 70.451 136.96 105.011 230.4 1.385 2.38 2.203 5.238 2.203 8.288 0 3.948-1.371 7.576-3.662 10.433l0.025-0.033c-19.874 22.447-32.010 52.144-32.010 84.675 0 53.232 32.494 98.874 78.729 118.173l0.846 0.313c6.084 1.559 10.509 6.993 10.509 13.461 0 0.962-0.098 1.901-0.284 2.808l0.015-0.090c-1.28 7.475 0 37.376 0 44.851-2.56 31.232 85.555 31.232 87.091 1.28zM619.827 409.549c-1.28 5.12-66.56 124.467-98.611 204.237-2.56 5.12-2.56 11.213-11.52 11.213s-8.96-6.246-11.52-11.213c-30.771-77.261-96.102-195.482-98.816-202.957h66.56c-0.306 4.106-0.481 8.893-0.481 13.722s0.175 9.616 0.518 14.357l-0.037-0.635c4.056 20.528 21.915 35.793 43.339 35.793 9.702 0 18.674-3.131 25.958-8.437l-0.126 0.088c11.751-9.404 19.213-23.746 19.213-39.83 0-0.397-0.005-0.793-0.014-1.189l0.001 0.059v-14.95h65.331zM509.645 712.243c24.46 0.354 44.36 19.4 46.071 43.473l0.009 0.15c-1.184 24.192-21.087 43.358-45.466 43.358s-44.282-19.166-45.461-43.253l-0.004-0.106c-0.002-0.147-0.003-0.32-0.003-0.494 0-23.837 19.324-43.162 43.162-43.162 0.595 0 1.188 0.012 1.777 0.036l-0.084-0.003z" />
<glyph unicode="&#xe149;" glyph-name="total-visited-pages" d="M409.6 704h614.4v212.582c-0.145 23.974-19.585 43.36-43.566 43.418h-570.835v-256zM409.6 652.8h614.4v-153.6h-614.4v153.6zM409.6 396.8h614.4v-153.6h-614.4v153.6zM409.6 192v-256l570.829 2.202c24.004 0.058 43.455 19.473 43.571 43.458v210.341h-614.4zM307.2 960h-263.629c-23.987-0.058-43.426-19.443-43.571-43.404v-936.974c0.029-24.062 19.513-43.564 43.566-43.622h263.635v1024z" />
<glyph unicode="&#xe150;" glyph-name="seo" d="M512 686.95c-1.84 0.052-4.005 0.082-6.178 0.082-125.834 0-228.361-99.79-232.762-224.55l-0.011-0.402c4.384-125.185 106.923-225.003 232.775-225.003 2.172 0 4.336 0.030 6.494 0.089l-0.318-0.007c7.149-0.643 15.463-1.010 23.864-1.010 54.272 0 104.968 15.311 148.004 41.85l-1.219-0.699 46.080-93.85c-6.317-6.026-10.245-14.51-10.245-23.91s3.928-17.884 10.232-23.898l0.013-0.012 180.941-182.579c6.018-6.315 14.493-10.241 23.885-10.241s17.867 3.927 23.872 10.228l47.834 47.834c7.201 6.197 11.733 15.322 11.733 25.505 0 9.377-3.843 17.856-10.039 23.95l-180.895 180.946c-6.026 6.317-14.51 10.245-23.91 10.245s-17.884-3.928-23.898-10.232l-0.012-0.013-95.59 46.080c37.575 51.594 62.263 114.792 68.155 183.36l0.095 1.37c-4.413 125.162-106.939 224.951-232.773 224.951-2.154 0-4.302-0.029-6.442-0.087l0.316 0.007zM512 658.842c1.606 0.045 3.496 0.071 5.392 0.071 110.101 0 199.807-87.318 203.648-196.482l0.010-0.351c-3.823-109.538-93.541-196.884-203.659-196.884-1.895 0-3.785 0.026-5.668 0.077l0.278-0.006c-1.606-0.045-3.495-0.071-5.39-0.071-110.119 0-199.837 87.347-203.65 196.536l-0.010 0.348c3.85 109.515 93.557 196.833 203.658 196.833 1.896 0 3.786-0.026 5.67-0.077l-0.278 0.006zM704.87 110.080c-12.163 12.28-19.677 29.183-19.677 47.84 0 6.668 0.96 13.112 2.749 19.201l-0.121-0.481-5.12-35.84c-41.83-25.293-110.95 0-170.65 0-169.662 0-307.2 137.538-307.2 307.2s137.538 307.2 307.2 307.2c169.662 0 307.2-137.538 307.2-307.2v0c0.001-0.267 0.001-0.583 0.001-0.899 0-60.518-17.814-116.875-48.485-164.114l0.714 1.173 11.878-11.93c4.256 1.119 9.142 1.761 14.178 1.761 1.010 0 2.014-0.026 3.012-0.077l-0.14 0.006c0.514 0.015 1.118 0.024 1.725 0.024 18.251 0 34.658-7.892 45.996-20.45l0.048-0.054 39.27-39.27c1.69 1.69 1.69 3.43 3.43 5.12l80.23 1.69 25.6 63.13-56.32 56.32c3.413 11.831 6.406 26.274 8.375 41.042l0.175 1.608 75.11 30.72v68.352l-73.37 30.72c-2.4 16.75-5.404 31.182-9.207 45.286l0.605-2.636 56.32 56.32-25.6 63.13-80.23 1.69c-6.81 11.93-15.36 23.91-23.859 35.84l28.979 73.421-47.77 47.77-73.37-29.030c-11.93 8.55-23.91 17.050-35.84 23.91l-1.741 80.23-63.13 25.6-56.32-56.32c-11.833 3.414-26.276 6.408-41.044 8.375l-1.606 0.175-30.72 73.37h-68.301l-30.72-73.37c-16.743-2.38-31.178-5.367-45.285-9.152l2.636 0.602-56.32 56.32-63.13-25.6-1.741-80.23c-11.93-6.81-23.91-15.36-35.84-23.91l-73.37 29.030-47.77-47.77 28.979-73.37c-8.499-11.981-17.050-23.91-23.859-35.84l-80.23-1.741-25.6-63.13 56.32-56.32c-3.413-11.83-6.406-26.274-8.375-41.041l-0.175-1.608-73.37-30.72v-68.25l73.37-30.72c2.379-16.762 5.366-31.214 9.152-45.34l-0.602 2.639-56.32-56.32 25.6-63.13 80.23-1.69c6.81-11.93 15.36-23.91 23.91-35.84l-29.030-73.421 47.77-47.77 73.37 29.030c11.93-8.55 23.91-17.050 35.84-23.91l1.741-80.23 63.13-25.6 56.32 56.32c11.836-3.416 26.279-6.41 41.048-8.376l1.602-0.174 30.72-73.37h68.25l30.72 73.37c16.757 2.376 31.209 5.363 45.334 9.151l-2.633-0.601 56.32-56.32 63.13 25.6 1.69 80.23c1.69 1.69 3.43 1.69 5.12 3.43zM369.306 442.88c7.582 49.258 48.359 86.945 98.443 89.691l0.27 0.012c0.086-0.003 0.188-0.005 0.29-0.005 4.977 0 9.011 4.034 9.011 9.011 0 0.435-0.031 0.863-0.090 1.281l0.006-0.048c-2.218 4.927-7.084 8.296-12.737 8.296-1.579 0-3.097-0.263-4.513-0.747l0.098 0.029c-68.403-12.288-118.426-55.757-118.426-107.52 0.243-7.682 1.181-15.002 2.758-22.083l-0.147 0.784c2.565-4.76 7.514-7.94 13.205-7.94 1.386 0 2.727 0.189 4.001 0.541l-0.105-0.025c0.086-0.003 0.188-0.005 0.29-0.005 4.977 0 9.011 4.034 9.011 9.011 0 0.435-0.031 0.863-0.090 1.281l0.006-0.048c0 6.349-1.28 11.93-1.28 18.483z" />
<glyph unicode="&#xe151;" glyph-name="google-analytics" d="M1024 448c0-0.013 0-0.029 0-0.044 0-57.159-9.274-112.151-26.398-163.555l1.054 3.651-222.669 106.701c3.478 16.313 5.47 35.055 5.47 54.263 0 125.911-85.593 231.83-201.767 262.747l-1.899 0.43v247.808c253.321-35.282 446.21-250.474 446.21-510.716 0-0.451-0.001-0.902-0.002-1.354v0.070zM445.44 712.346v247.654c-252.664-36.831-444.531-252.009-444.531-512s191.868-475.169 441.733-511.664l2.799-0.336v247.654c-118.196 31.879-203.748 138.121-203.748 264.346s85.552 232.467 201.835 263.905l1.914 0.441zM719.616 274.739c-35.899-43.424-84.539-75.163-140.162-89.549l-1.867-0.41v-247.706c153.804 21.084 283.956 107.631 363.327 230.136l1.217 2.005z" />
<glyph unicode="&#xe152;" glyph-name="conversion-goal" d="M464.896 575.59c-8.234-9.444-13.253-21.876-13.253-35.48 0-12.466 4.215-23.948 11.298-33.098l-0.092 0.124c10.054-10.272 22.896-17.778 37.302-21.291l0.535-0.11v108.032c-14.237-1.699-26.671-8.344-35.755-18.139l-0.034-0.037zM523.776 442.88v0 0zM873.677 810.496c-92.617 92.438-220.472 149.6-361.677 149.6-282.77 0-512-229.23-512-512s229.23-512 512-512c282.77 0 512 229.23 512 512 0 0.074 0 0.148 0 0.222v-0.011c-0.103 141.481-57.534 269.528-150.318 362.183l-0.005 0.005zM972.8 432.64h-89.958c-8.62-192.814-162.692-346.975-354.672-355.708l-0.809-0.029v-90.061c-0.493-8.452-7.468-15.12-16-15.12s-15.507 6.668-15.998 15.077l-0.002 0.043v90.061c-192.976 8.549-347.28 162.782-355.914 354.938l-0.029 0.8h-90.061c-0.271-0.016-0.587-0.026-0.905-0.026-8.851 0-16.026 7.175-16.026 16.026s7.175 16.026 16.026 16.026c0.319 0 0.635-0.009 0.949-0.028l-0.043 0.002h90.061c8.762 192.789 162.924 346.862 354.94 355.453l0.797 0.028v90.010c0 8.851 7.175 16.026 16.026 16.026s16.026-7.175 16.026-16.026v0-90.010c192.826-8.65 346.979-162.768 355.657-354.78l0.029-0.804h89.907c0.47 0.049 1.015 0.077 1.567 0.077 8.851 0 16.026-7.175 16.026-16.026s-7.175-16.026-16.026-16.026c-0.552 0-1.097 0.028-1.635 0.082l0.068-0.006zM784.435 464.691h66.253c-8.704 174.968-148.365 314.647-322.525 323.347l-0.803 0.032v-66.202c-0.493-8.452-7.468-15.12-16-15.12s-15.507 6.668-15.998 15.077l-0.002 0.043v66.202c-175.172-8.581-315.048-148.422-323.655-322.789l-0.031-0.795h66.048c8.851 0 16.026-7.175 16.026-16.026s-7.175-16.026-16.026-16.026h-66.253c8.64-175.151 148.521-314.978 322.899-323.502l0.788-0.031v66.253c0 8.851 7.175 16.026 16.026 16.026s16.026-7.175 16.026-16.026v0-66.202c175.184 8.612 315.052 148.497 323.604 322.896l0.031 0.79h-66.253c-0.47-0.049-1.015-0.077-1.567-0.077-8.851 0-16.026 7.175-16.026 16.026s7.175 16.026 16.026 16.026c0.552 0 1.097-0.028 1.635-0.082l-0.068 0.006zM590.49 320.819c-16.978-17.539-40.591-28.568-66.782-29.029l-0.086-0.001v-39.424h-22.886v38.912c-17.627 1.889-33.742 6.564-48.519 13.596l0.903-0.387c-13.224 7.224-23.946 17.552-31.435 30.041l-0.207 0.372c-8.884 14.651-14.48 32.187-15.351 50.958l-0.009 0.242 39.322 7.475c1.534-17.318 7.302-33.032 16.253-46.441l-0.227 0.361c9.119-12.64 23.106-21.28 39.159-23.168l0.265-0.025v124.211c-18.553 3.807-35.023 10.244-49.97 19.001l0.767-0.415c-12.27 6.722-22.103 16.556-28.639 28.456l-0.186 0.37c-6.451 11.835-10.245 25.921-10.245 40.893 0 0.33 0.002 0.659 0.006 0.988v-0.050c-0.030 0.839-0.046 1.824-0.046 2.814 0 25.772 11.423 48.877 29.482 64.526l0.107 0.090c16.114 12.464 36.375 20.293 58.422 21.19l0.202 0.007v18.637h23.040v-18.586c20.56-1.065 39.215-8.429 54.281-20.18l-0.214 0.161c16.911-14.349 28.275-34.786 30.688-57.886l0.032-0.379-40.294-5.99c-1.281 13.5-6.479 25.589-14.43 35.345l0.094-0.119c-7.72 8.371-18.077 14.207-29.745 16.187l-0.309 0.043v-112.64c15.575-3.561 28.698-7.573 41.426-12.389l-2.155 0.716c11.485-4.821 21.316-11.368 29.673-19.432l-0.028 0.027c7.508-7.593 13.488-16.715 17.429-26.855l0.184-0.537c3.893-9.821 6.151-21.198 6.151-33.103 0-0.386-0.002-0.772-0.007-1.157l0.001 0.058c0.024-0.8 0.038-1.742 0.038-2.686 0-25.218-9.903-48.123-26.032-65.038l0.036 0.038zM523.93 442.829v-118.579c15.104 1.634 28.266 8.863 37.573 19.54l0.059 0.069c9.213 10.682 14.823 24.697 14.823 40.022 0 0.636-0.010 1.27-0.029 1.901l0.002-0.092c0.037 0.736 0.058 1.599 0.058 2.467 0 11.979-4.005 23.022-10.75 31.863l0.094-0.128c-11.304 10.859-25.419 18.877-41.142 22.852l-0.637 0.136z" />
<glyph unicode="&#xe153;" glyph-name="rd-party-java-script" d="M856.064 960h-688.128c-0.17 0.002-0.37 0.003-0.57 0.003-35.542 0-64.419-28.539-64.965-63.951l-0.001-0.051v-896c0.547-35.464 29.423-64.003 64.966-64.003 0.201 0 0.401 0.001 0.601 0.003h688.097c0.17-0.002 0.37-0.003 0.57-0.003 35.542 0 64.419 28.539 64.965 63.951l0.001 0.051v896c-0.547 35.464-29.423 64.003-64.966 64.003-0.201 0-0.401-0.001-0.601-0.003h0.031zM535.654 703.232l41.472-118.63 40.243 118.682h35.174l-58.624-160.41h-35.328l-58.931 160.358h35.84zM415.13 703.232h35.021l65.741-160.358h-35.84l-14.336 36.454h-65.894l-13.568-36.454h-35.174zM227.482 592.435l31.283 3.482c-0.009-0.333-0.015-0.725-0.015-1.118 0-6.69 1.555-13.016 4.323-18.637l-0.11 0.248c3.203-5.236 8.891-8.678 15.382-8.678 0.335 0 0.667 0.009 0.997 0.027l-0.046-0.002c0.573-0.064 1.237-0.1 1.91-0.1 5.476 0 10.39 2.408 13.74 6.223l0.018 0.021c3.056 6.090 4.845 13.27 4.845 20.867 0 1.667-0.086 3.313-0.254 4.936l0.017-0.203v103.731h33.229v-101.632c0.044-1.115 0.069-2.423 0.069-3.738 0-9.602-1.334-18.893-3.826-27.697l0.173 0.715c-3.24-9.446-9.359-17.205-17.296-22.427l-0.163-0.101c-8.719-5.378-19.285-8.565-30.596-8.565-0.98 0-1.954 0.024-2.922 0.071l0.136-0.005c-1.023-0.074-2.216-0.116-3.419-0.116-13.279 0-25.356 5.148-34.343 13.557l0.028-0.026c-8.258 9.369-13.298 21.747-13.298 35.301 0 1.361 0.051 2.71 0.151 4.045l-0.011-0.178zM757.76 151.603h-491.52v53.862h491.52v-53.914zM757.76 256l-491.52 3.379v53.862h491.52v-57.293zM764.672 542.72l-14.336 36.454h-65.894l-13.722-36.301h-34.97l63.949 160.358h34.97l65.741-160.358h-35.84zM694.733 606.31h44.749l-22.682 59.494zM432.179 665.805l-22.118-59.494h44.8z" />
<glyph unicode="&#xe154;" glyph-name="page" d="M409.6 704h614.4v212.582c-0.145 23.974-19.585 43.36-43.566 43.418h-570.835v-256zM409.6 652.8h614.4v-153.6h-614.4v153.6zM409.6 396.8h614.4v-153.6h-614.4v153.6zM409.6 192v-256l570.829 2.202c24.004 0.058 43.455 19.473 43.571 43.458v210.341h-614.4zM307.2 960h-263.629c-23.987-0.058-43.426-19.443-43.571-43.404v-936.974c0.029-24.062 19.513-43.564 43.566-43.622h263.635v1024z" />
<glyph unicode="&#xe155;" glyph-name="image-settings" d="M523.264 207.36c-33.393 5.472-58.57 34.092-58.624 68.602v29.036h-377.6l174.080 382.515 216.986-254.874 45.056 26.419c3.598 11.519 9.763 21.354 17.853 29.22l0.016 0.016 23.296 22.784c12.813 12.509 30.354 20.225 49.696 20.225 0.133 0 0.265 0 0.398-0.001h-0.020c8.838-0.003 17.303-1.598 25.125-4.515l-0.497 0.163 52.736 30.72c13.153 16.829 33.453 27.546 56.256 27.546 0.022 0 0.045 0 0.067 0h33.481c34.197-0.147 62.628-24.653 68.845-57.056l0.070-0.441 2.56-14.182q4.659-1.741 9.216-3.686l6.758 4.608v305.050c0 37.734 0 37.734-39.526 37.786l-789.965 0.307c-39.526 0-39.526-0.358-39.526-38.093v-604.16c0-37.786 0-37.786 39.526-37.786h489.114c1.504 2.777 2.963 5.103 4.549 7.332l-0.146-0.215 8.55 11.878q-1.843 4.147-3.533 8.397zM764.774 338.637v0c-25.407-0.602-45.773-21.34-45.773-46.836 0-25.873 20.975-46.848 46.848-46.848s46.848 20.975 46.848 46.848c0 0.014 0 0.027 0 0.041v-0.002c-0.345 25.92-21.438 46.8-47.407 46.8-0.181 0-0.363-0.001-0.543-0.003h0.028zM999.219 336.794l-38.861 6.656c-5.033 17.97-11.883 33.666-20.561 48.141l0.491-0.883 22.938 31.437c3.396 4.653 5.434 10.486 5.434 16.795 0 8.097-3.356 15.41-8.754 20.624l-0.008 0.008-23.347 22.835c-5.461 5.308-12.925 8.581-21.153 8.581-6.406 0-12.348-1.984-17.246-5.37l0.101 0.066-32.256-22.323c-14.075 8.057-30.358 14.768-47.529 19.292l-1.418 0.318-6.81 38.042c-2.624 13.858-14.61 24.207-29.024 24.269h-32.877c-0.091 0.001-0.198 0.002-0.306 0.002-14.436 0-26.461-10.318-29.104-23.981l-0.030-0.186-6.81-38.042c-18.369-4.9-34.439-11.604-49.327-20.135l0.994 0.525-32.256 22.374c-4.796 3.329-10.741 5.319-17.151 5.319-8.229 0-15.692-3.279-21.153-8.602l0.006 0.006-23.347-22.835c-5.406-5.222-8.762-12.535-8.762-20.632 0-6.309 2.038-12.142 5.491-16.877l-0.057 0.082 22.682-31.642c-8.212-13.741-15.051-29.616-19.696-46.402l-0.323-1.367-38.861-6.656c-13.866-2.31-24.354-14.066-24.678-28.331l-0.001-0.034v-32.154c0.041-14.506 10.603-26.533 24.455-28.853l0.172-0.024 38.861-6.656c5.029-17.969 11.879-33.666 20.56-48.139l-0.49 0.881-22.682-31.488c-3.396-4.653-5.434-10.486-5.434-16.795 0-8.097 3.356-15.41 8.754-20.624l0.008-0.008 23.347-22.784c5.455-5.317 12.918-8.596 21.147-8.596 6.41 0 12.354 1.99 17.251 5.385l-0.1-0.066 32.256 22.17c13.894-8.003 29.963-14.707 46.906-19.281l1.427-0.328 6.81-37.99c2.673-13.85 14.699-24.168 29.134-24.168 0.107 0 0.215 0.001 0.322 0.002h32.394c0.091-0.001 0.198-0.002 0.306-0.002 14.436 0 26.461 10.318 29.104 23.981l0.030 0.186 7.424 37.99c18.37 4.902 34.439 11.607 49.329 20.135l-0.996-0.526 32.154-22.272c4.796-3.329 10.741-5.319 17.151-5.319 8.229 0 15.692 3.279 21.153 8.602l-0.006-0.006 23.347 22.784c5.393 5.22 8.74 12.524 8.74 20.611 0 6.296-2.029 12.118-5.469 16.847l0.057-0.082-22.682 31.642c8.187 13.591 15.037 29.288 19.738 45.887l0.332 1.371 38.861 6.656c14.063 2.324 24.659 14.386 24.678 28.926v32.156c-0.046 14.549-10.656 26.606-24.559 28.905l-0.171 0.023zM764.826 204.851v0c-47.271 1.033-85.197 39.598-85.197 87.020 0 48.071 38.969 87.040 87.040 87.040 48.064 0 87.029-38.958 87.040-87.019v-0.001c-0.518-48.184-39.699-87.045-87.957-87.045-0.326 0-0.651 0.002-0.976 0.005h0.049z" />
</font>
</defs>
</svg>
